<mxfile host="app.diagrams.net" modified="2022-03-15T02:42:55.168Z" agent="5.0 (Windows NT 6.1; Win64; x64) AppleWebKit/537.36 (KHTML, like Gecko) Chrome/99.0.4844.51 Safari/537.36 Edg/99.0.1150.39" etag="a6mdSuHa5eOznugCINsj" version="15.9.1" type="github">
  <diagram id="tarfEdxAG41wSQtfOPfH" name="Page-1">
    <mxGraphModel dx="1098" dy="751" grid="1" gridSize="10" guides="1" tooltips="1" connect="1" arrows="1" fold="1" page="1" pageScale="1" pageWidth="827" pageHeight="1169" math="0" shadow="0">
      <root>
        <mxCell id="0" />
        <mxCell id="1" parent="0" />
        <mxCell id="9vh1Hj67I27Qi9RlaAKU-1" value="" style="shape=image;verticalLabelPosition=bottom;labelBackgroundColor=#ffffff;verticalAlign=top;aspect=fixed;imageAspect=0;image=data:image/png,iVBORw0KGgoAAAANSUhEUgAAAUYAAABCCAYAAAArMX9SAAAKzklEQVR4Ae1dy47cOAzsbw/mSxbIL801n5DjHnvBHRRSqSEl2W2r/aiDQYoskrJEVdszk87j5z8/n7///f3tCvvWvo/Hx7c6qN3yZXMJPF/IE1Jz8Zj1Cou8VU7kUMn54NMcbIceEhfjQ8/uHRjEYxxS8/CYdWA5NvSsntbpjZEbOK4LG+rqGPZX58I1MZ9M9uqxn+Mrvboftmc6bJCcn22YT9gyO/tbusZW+644zsk+1oGBZF/oOs5wYatwFX7kHkZzPiIZCrHMisC/1seTQq4RmdXTXDxmPfLzmHX16VwYCx2SY2GDZB/nZD8wmY1jsnuHX2ORE35I4CBhz2RWT+N648jLmEpXnM5nzVyQk2vClkmumdVjfy8n518bhxqQoznX1kNcdu88B+Ag1ZeNw4ZrJC7LwXHIxRL+kCP3wDU4D+uR68GJ99R5QlvU0Xw8Zj1q8Th0vlpzyeIYDz/yZT7YRjCBRU7EtWSGbdkyXys/fBrXG0ccYypdcajXkpwri4cfErkwDokLvhGJeMZmeRSn44hvxbV8qJ1h2AcdMsOHDf5KtjDq4zHrkZvHrGe+8OPieWkc+1q6xvGYdc1xeWKMm+cFYF0XQ8eMbeVp+ZCTcy21Aa+yysl2nhvbNVdrzHGcDzHsz2zsZz2wOkZ8JRkfem+MPIxlHf6W5BqM0zyK0zFiW3EtH8dDZ7mmHserrnNhv9biseo6rvIwjjGhh6/lVzzGGsPjVs5TEyNujG+WFyTzsw16L2bEj1yQiAmZ2eCHDxL2ERkxGQ65IIGp8PC3JOfSPPBBRh7GVLriWvXZl9VhG7Bqa80DMSqRgyVj2K75K1/Ev+rjOWT5eC6ZX+OrcTXPLD/nWBOnMVkNxXDNTO/h1Y+aU4gRxbKJz7Zlc8lss+flet9/ATiyJt67des2srazMdleZrYZ85pCjDNuZLRGttCZbTSfce89mN67967/lv2f7WVm27Jmlet2xBgLEYvNV7U4th//0L3r4Lg39ukNPpfv3NtbEqObep+m9rp6Xa/SAybG5I/br7K5vg8TlXtgXQ+8nRgfj49nXK0NzDCwQbbi1/iWPsYvxeuc8Aqhdo/XNbbXzev2Sg+clhhx03sQY0Vyz8fjGRdqq6ziFKfjtXGax2OTgXtgmx44BTG2NnsWMYIQIbM5rSW4tXHZHGzb5mB4He+9jrsTYxBX1mSwg9hYAs824OGDBAZjSNghYe/JHkm1iDFy9+Kz+mtisjy23fswe/+32//dv0SiRWixkUpcOs4w3AAj+AyT/YPzyNsjqbXEWNUbqcn3a3275vdaei2rHniZGD9/fT71ChJAwSCllq6kpeOIzWyck2swHnGQiAlZEdVMYoxavXo8Z+s+yO6BOT3w8qt0kGJrs0BKIK9qjBzwYxwys8Gf+TIb8D3ZI6q1T4ytur2arVj75hwUr/O91nl3YoyGYqJiXX3ZuLKFvfKhRkjgRmWPpEyM9zogo31j3LX64tDEyAQHHQ2IMUv4QrIdOvsrvSLGIES9shxVfIaFbU0MYi2vdSC9n8fYzynEeLbNXktUs+POtq6e7zEOvfehvw8mxuSfBM4muLX13OD9BvcaeY3W9ICJMSHGWMilZLUUr5sV8a/m0JwemxTcA+t6wMRYEKMbal1Ded28blfoAROjiXHxb+6v0Pi+BxN4qwdMjCbGRcT4+PF4xpU11Zl+FFDdQ3ZfM22PH8v/xEznFzlwqa8aL8VXeWA/Uy9gzixNjCbGlOS4SViviPFsB2EJMS7B8lqt0V8lxrXxWxNj3PvZeoL3y8RoYjQxdnrgDsTIpLCVbmLsNNZWCz2aB5+a+BTEGPFsVx8wW0k8YbHk3GzHAVSbjjledWDDDj0kcGxju+LZpzHsi7jqAGgc5gCZ+dXGY8StlZwrdM7DPtjZxjr8ISs7Y5bord7UXuWxxrHva55/Xq/Zx3E6T/ZBZwxskOyDXvVG2CsfYt8pN/kSCb6B6ssZAjPLpxsVY8xRfbCzzObJBwA6x4TeigOWY1mHPyTbK53xrAMfspVLfZyDfcgHv47DXjW4YjEnzo+8kByjOjA9We0Dx/Fc2B66+nSseIxHccDn8/wiMGC0d2EPyT7YR23AQ2Zx8IVUv44zTNiq3jAx0tNk1ghY/C192aahTssHTGsuwGQyi4vDwgeGx6xzPrZXOuNZZzzbQ4dPJXBq57FiMA5ZNX/EM47HrI9gKjzHQq/2Af6Qmi/GfLWw6qviGJfp+Tz/fIhHDPcr6+pDfsUAF/bM14pr+ZBPJWIgq96A/6jykj9jXNsArU3i5ofewsOnWB6zDnxItlc641lnPNs1b8+HPJDA6zjsVfMHFnEhecz6CKbCc2xL13ges67zzMao04sDbonU3uUx61/z+ptEKxvXjxyapxe3FM/1qt5gzBH1WxJjttF7bU4cHj5APGad67O90hnPOuPZHjp8ISsf7IxlPOzAhayan+MCx+MsT4ZBHY5FzaouYlhyvNZu+SIH+0dzAhdzXDbPv8mOe1V1HqNeZoMPMsNktsC37JUPdUJW9750XTjnDP12xBiLGhvK154LjUPIkuuxHQcQtq+5/iFWtnMO1nsY+Fkinm3QeQ6whURMyKr5Ga8xWV7YkJtjWEfNqi7iVWI+Ydd88EFyLGyQo77ALSUA7suMeEb8PL/QWzHq45otX5aXYzGHao+WrgvyzZKXJMZZizdSJztMI3Fnw2QHIO59r/s4+sHCfZ9lnpjvljLrCeQ/+rqYGOmXQ9i0LaWJcft/enb0Q4X+Ocs8Md+tZUWMZ1gXE+PJiBFEm8mtG3tpPj0Iez4xLp2b8dt/QLXWVHuhhT2iz8S4MzEecdM9p7kk4fU+33qbGE2Mu/0c0IRwPkLwnn3t2aWJsfV/vcAXMmuG6lVg69fDqk42J9tMNO6BOT1wS2IEKVZN1iKrrYkx5tCqV83R9jkHxOt8z3W+NDFWTW1ivGezV/1gu/tBe+CSxAjig/x204+P//97VbXHuPf0lj0x4g9b+Q9iOTfbgWX/SF3Fe+zD7B7Yrwcu+e06aJiMGGGDBBZyLTEy4anOY9RR2aureI/3OxReW6/t6Yjx89fnU6/4lpKsmSvyq+yRo0dQrSfGdA70lWeZH7ZeXeAsfWjdA/v3wOlepYMURxujIsDKHnnXEFTribDl4/tYU5fjre9/WLzG91ljE6P8HWOPoOKJUZ8aW+QXvpYfh61XFzjL+xxO7/X79vqSxIgnQpbcZLCzDXqPoJYSY+QFOUKiFsteXcZaf9+B8drfY+0vSYyvNu9skppd79X1cfw9yOHO+2xilFfpaIbZRDW73p0b3vduUh/pARNjQowzydGk6IM6clCNmdsnJsaCGN2IcxvR6+31PlIPmBhNjMN//nSkxvVcTKR79sDliTFeVf266kO05yFy7uv116WJ0YR4vYY1CXlPZ/SAidGv0n6Vdg+4B6QHTIyyIDM+jVzDTz3ugWP3wCm/RIKbKr5AovoSCb9KH7v5eB+te6+O1AOXJEb/wsWH7EiHzHM5Xz/6Vdqv0v75knvAPSA9YGKUBfGn+/k+3b1n3rOte8DEaGL004J7wD0gPWBilAXZ+pPH+fw04x44Xw+YGE2MflpwD7gHpAcuTYzxSe3fUJ/v09pPWN6zd/fA5Ynx3Qvs+j7k7oHz9YCJUR6h3cRjTew/nh9bJ/fTOdfpP3RGP/CSb3zbAAAAAElFTkSuQmCC;" vertex="1" parent="1">
          <mxGeometry x="120" y="120" width="326" height="66" as="geometry" />
        </mxCell>
        <mxCell id="9vh1Hj67I27Qi9RlaAKU-2" style="edgeStyle=orthogonalEdgeStyle;rounded=1;orthogonalLoop=1;jettySize=auto;html=1;entryX=1;entryY=0.065;entryDx=0;entryDy=0;entryPerimeter=0;shadow=1;strokeColor=#CC0000;" edge="1" parent="1" source="9vh1Hj67I27Qi9RlaAKU-3" target="9vh1Hj67I27Qi9RlaAKU-5">
          <mxGeometry relative="1" as="geometry">
            <Array as="points">
              <mxPoint x="660" y="214" />
            </Array>
          </mxGeometry>
        </mxCell>
        <mxCell id="9vh1Hj67I27Qi9RlaAKU-3" value="" style="shape=image;verticalLabelPosition=bottom;labelBackgroundColor=#ffffff;verticalAlign=top;aspect=fixed;imageAspect=0;image=data:image/png,iVBORw0KGgoAAAANSUhEUgAAAZoAAAAhCAYAAADgfG1hAAAIMElEQVR4Ae2dTW7dSAyEdfbAJxkgV8p2jpDlLDUgjA8pl8nult6TI9tcCCSLRXZLIpvPP3G23//93vvqZ9A10DXQNdA1cFUNbLPEL9vLHteM1/4u0q6BroGuga6BrAamg4agHjZdQNRCy66FroGugSM10IOmv3XYX612DXQNdA1cWgM9aLrALi2wI596mtufkrsGvmYNvBk0P//5uceVvez+1tnXLIDsXTfW77proGvgmTWwPGhi0f7FgC6+ZxZf5+p66hr4HjXwZtCMXnp/RfM9CmJUA+3rGuga6Bo4UwM9aPpnNOm3Ss8UU8f0IdQ10DWQ1UAPmh40PWi6BroGugYurYHt17+/dq5sEoH1t876kwq10LJroWuga+BIDfRXNP1J5tJPMkeKsbl9eHUNfM0amA6a/k2zr/niu6H7vXYNdA18VA1MB81HbaTX+TxFv+/b3lc/g66B1xros2t+dt1m0PTPgOYv6y4F3QdMD5mugT81cJe+1H3c7Ty9xaC520PRF9b6+wHYh8yfQ6afRT+Lu54RdzpXlwfNtr3scWUPFV/lz2LARg9j37Y9LrhXSdaZrTXa61V7O5N3+7HtXFl8+DJ8FevDtQ/XroE/NbDaNxVv1KtVTOAr59EKp1ojYh+J17wPDxqGjCY9oo9uhAFwJN+IOxskI/9on6M1P9q3MkRWOKN9c8hs27brleEZpjGhjzjhUw7cEe6caj14mR+Mdao9kEMlschVn66lsegula9rrOieK2ziRj5dU2McJwc5M7/6Kp08KuEqho4vJFjIDFcOfo1Bx6d89Y16ZebTXlR9Fod/di7N/ORxeTbO82AvDxoCXD4yaJ59M743t0eDJLgj/0fv1fce9kohPouTrQ+mDadNiE4ThsywDM9yah6Nybis45Ic4DM743kMnJHMYhwLW3O4X32hZ/4M87jM9ji1Va9i2Y/6Pc5tYgLXuJGe5YDvvsxmTWKw2UMWg09jPE599MUZqf2q+mqulXNphePrnYnxHGpPBw2DBKnBoVe48zK7upk48LmyOHxI5YAhw4fuUuPgORZ2tc/tx8vul8ZnPsfU1thKj2LMChJcpeZQPItX7kwfNZ36tInRkdqoYEh82EhwXUOxTPdYtVX3WPWp7rzK9hi3I04x1Vdzeo4qLsN9PbVVr2KztbM4x9zO8is24rsvs2f7zGIC0z2gOxd81i8jP71IfyqXswHMbfDqfFr1w1M5y6ncFf3NoBn9NwHZQAFDZguOcs5uJgaD52RYgKutOn6VWb4Vf7VPf/Fqq65rKO668kZ6VpTwKVzskI65rdxM93eozZs1n2I0LRiSJh3lUi55iHMb3KXm0LVcH8V5Dudmtse47etnfs+bcTLM4zLb49RGV6k5Ag8bPz63VznEZzLLCc99mT3bQxYDhvT1HM96JsO8j+CM+/n15+J6VhCHrM6nmb/aT8TNcpJ7Vb75EzTxp2hi8Sy4GiYVTo5HbiYbDCMs87GPkGf91UP3l6+26roHxV2HR+EhwVVWvsCVF7pjbjvfbX+HNJ42sTaf6xWPPPBd4td415WT6Z4zbHj4sFXCc6mcke653Y5YxVSv8macDKviFScOmfkUQ3d+2JUv8IyvMcRWkniVcBXznPiU6zoxyPB7HDEq4SC9Xyrb+yh49KJLzaHnhOLo1fk082f7iVyzfOQ9It98RTMKrAZKhY9y4ZvdUDYYRljmY62QZ/3VPr0A1FZd96C468ob6VGUFKbzMtwxtz3HzNamQ6fpws50MCRxylef6spB1/iR7nmUO/PpWsHV2Jnuud0mN3kzv6+RcTLM4zJb41T3fXksXJdVHDzyuA1eyRFffarrXsCR+DIJFtzQZxc5Z/1S+bUPQ+dSfpwRYSPVh16dT6t+eCpnOZW7on/KQaMDI3Rs1bObh5f5Aqv81UPXQRHxaquu6ynuuvIqPStG5WrxgitWxcc9VvdJHmTWgDRd1qz4VJIDzOMUd274wGYyy6Mxld/XcFtzZHqWVzHVic8wfCEzf4ZpTKVrnOrVOuQJLrpzV/I4R3Nl+oivPtXZl+ZTf+juw1YeWCXh0hchj/SR9mXEem/q+fDqz/95yaxvZ37dP/qZGGIzOR00fMWiUhOBK3ZEz26IgaFScyruw+GMz2M8Z7bH2A+FoFL3qXjoGpPpGpvpXphHOFrEWZ64x+o+fZ1oPJpMJQ0J5ja4S+fN7IiHM5OsNeLBQQbX13D7aD5yskaVT/3Owadrg6lUf6XDx682ukrloSODF7ry0eFkfvVVepYHrvvUDh0eEgzpeNjkUKk8xcmj/XGkjyKOvnwvX3/RSHNznigW+qhvRz7Po/bZOM2h+nTQKPkK/dk3dMUeI2e2z+rFX7WHK/PG/WX3mK1J47V8f5j1M/l+z0R75EgfadxZfdazM3+17tm4Kt9fHzSxsWffVHWzj+DZHr/KoIl7y+6vel59mH6/w7Tfef3O6ZOjfUTcI3LUtyPfbM1HYrPctxg0sbFn31h2s49ivsevMmiOPpc7HTr+rQy1r9in5nf9ivXO5vS9qX025xVxui/Xr1jvipxH++dZfD+PNO/Ip7yRHjmekSfWuM2gGd1w+97/Ycu/+UyuaNbOWX9i7mdz72fzN3vxs6zdg6b/h813/+7msxRv7/NeH0D6ffT7qGqgB00Pmh40XQNdA10Dl9bAbQfN6Nem8YWsJmiFP+t7jlX+xs9/qnv03Tzze8r9Hs+/x352/ey8Bj7doGHI+I2s2I8eZCtrfCaO//A1bPbvPvCQ7ntGHPnPvqOzcazbsg/HroHrauB/4G9kdx5Cw7EAAAAASUVORK5CYII=;" vertex="1" parent="1">
          <mxGeometry x="467" y="153" width="410" height="33" as="geometry" />
        </mxCell>
        <mxCell id="9vh1Hj67I27Qi9RlaAKU-4" style="edgeStyle=orthogonalEdgeStyle;rounded=1;orthogonalLoop=1;jettySize=auto;html=1;shadow=1;strokeColor=#CC0000;" edge="1" parent="1" source="9vh1Hj67I27Qi9RlaAKU-5" target="9vh1Hj67I27Qi9RlaAKU-7">
          <mxGeometry relative="1" as="geometry">
            <Array as="points">
              <mxPoint x="371" y="430" />
            </Array>
          </mxGeometry>
        </mxCell>
        <mxCell id="9vh1Hj67I27Qi9RlaAKU-5" value="" style="shape=image;verticalLabelPosition=bottom;labelBackgroundColor=#ffffff;verticalAlign=top;aspect=fixed;imageAspect=0;image=data:image/png,iVBORw0KGgoAAAANSUhEUgAAAfUAAADZCAYAAAA5UanoAAAgAElEQVR4Ae2dTZLjSNOc6yA6lY70Wp9EZlrqOt9WCx1ASy1LFlXzTHtHR2QmQIAFgj5mtPjziExkBtJJNIvz8X//3//9vPPr4+PXZ7y2XOOeHK3/a+N4mjvSP/7z6zNeGbN3vL15eXzb976HvL/eX/fA6/TAR7dZ//N//M9/yUP1Dn+EHzJFRs2OkPGDRTIP7CyJU1vjxNSHTmwmR0QJKSO/5vAPUeNbkdUcRuNW+PDtyelq2f86N733ynvlHrhvD7SkHpuuZK76GQ3RkWf4q/Gyf5SfsVGvw1exChvrUa1JR5SQdb4W9Vd6+MjROD5kN243z8jrcqhped8b33vrvXUP3LMHnkLq//W//+szv3JDQZxI4mHP9IjnPM3RGjN/Vauq3ZFlR5QdIau/0sP375ybx+8R78at5hnYDs9Ylve84b2v3lf3wL174GmkvtpIEGglo4b6tSZ+9Sl+1V/ldLVzzbA7slTC1jz1V/qjpK5jZb2ba8bZvvch4P31/roH7tMDLanro2XV92x+fErfmqdE2ulaUzGP+CM318q21s96R5RK2Jqj/ko3qd/nZtN9t+59dQ+4B87ogZbUjxxshdQhTpXMAV/YqquNPyR5yC6mfs3Dn/OxR7Ij9ciBtJHq63SwKqvxR+NW+PDtyelq2e8Dyj3gHnAP/HwPXIbU79QMzybLvePtzbvTXvlafv4Q8h54D9wDx/WASf2Ev9N/NlnuHW9vnm/A425Ar6XX0j3gHjiyB0zqJ5B6bNCzCPPRcSL/0RpHNqRr+YBzD7gH3AP7e8Cknkj98/Pj0y+vgXvguwd8uO4/XL12Xruf6AGTukndb2L8Rq7tgZ84lDymydA9sL8HTOom9fZA96dVP7Hw4br/cPXaee1+ogdM6g2pf3x8fOoLgpv5NB56lQcmYooBO/JnDLWQGqcOMcbC1njO62xykYrDh9RY6PiRla+K5TozmxoqyVEfOrGQ+EJ2fjCjuMY6nToqwaoPnVhIfCErv2KIaw46McVr7CcOJY9pMnQP7O8Bk3pB6nqo6aGXDz5i4JHZr3k5lnMqLDlZ5tyZTb7iVCc+k1VO9oWtdXJcY6FX8cqX8yo756mtepfLfDSe87JNTvg1b6RXNcDnWGUzJjnYzKHKIaY5OU9jPlz3H65eO6/dT/RAS+r6K3Kq75nkyo/PRF1+9AWpY+FDHhHTGuijA05jemCiI/VQxIckho3Er2Oor9Jzrtqq51yNqZ5xnZ1zsh156lN9tWau0eVV/jye2qp3udXYVV72Zbuqr74RPscqezbPKid8Ogf0jMXPfRHy4z8fXy/1WTdxuQeu1QMtqcdGKZmrvnUTV0i9IutuHMWqnvE5lm2uUa9ND8rqoFMfByQ+JAfiqJZiqUNetvFnqTV0rKyP8nKNjK3snJPtPH4Vz3UrTOXLeZWd89RGV6k1wh82cWLZXsWQX8mqJrgcq+zZHKocfMg8XvbrPWVSv9bhrXtj3XtDDzyN1IPY9cUEkBXhEgtJXGXln+VEvmKC0DOpjw46PfRC14NVY12NEUZrkT+S1FIJHh+2yoiFnaViRnqunW1qa330ru6sRpdX+amFVEzlI55jYXex8Fd4zSG3k+SrBKu+XJOYYrNODjLiOY8clWCQeq9YN3G4B67fA08j9VkzQNYVLseyHTn4kOqranY+PeDQOeDCrnR8SPIUrzHVFYOu+SM911HsLKZjBVZzZ3qunW1qU7eK5zEqTOXLeZWtearneeVcsFl2eeCok238nRzhNaa6zgU/klgl8QU29NmLmt19Yv/1D3fv0XvuUUvq+ulV9T2N8ujjdyXqGD/bOieNoYdUzEivDjsOuOpgJKaSGvhynvozNmL4ZrKqozldPI+Rba1R6VVd9alOfuUjFrKKVz7N6XTNU70bhzqBRc/YlToZo7UqfYTXmOrMS+tpPPQcw1Ycvk6C1XvFj9/fkyS0B6xfvwdaUj9y81ZIPcZTEs5EnGPEOz/zn8XBIeOQ40BTyeGHL9v4s8y4mR35YGaSsUY4MMjA5jGyvbUeNRmjq6fxjCGmY+NTqfFOB09cbXSVikNHBi50xaODqeIa6/SqDtgcUzt0cEh8yOwPmxoqFad+6nBfhDSpX/9A1/2y/p77dSlSv0ITcshZ/k0cXpP3W5Mr3JOew3uSk/d9376b1Iu/Uzd5vR95ec/rPffBuu9g9bp53X6qB0zqFyb1/DhU7TNISOtn/Yzx9tbMc1N7b80z8nReWT9jvDNq/tTB5HFNiu6BfT1gUk+k7kba10heN6+be8A94B74+R4wqZvUl/8ywDfsz9+w3gPvgXvAPTDqgUuS+q+PX5/xGk3cMTe2e8A94B5wD7gH/uyBy5G6yfzPDXLDej3cA+4B94B7YLUHTOp+/O4nIu4B94B7wD1wkx5oSV1/RU711XcLilv98ZnI8Sd1vyPV3rHufnAPuAfcA+s90JJ6LKKSuepbF9ikvr4hW9fWeK+te8A94B5wD9ADTyP1IHZ9MQGkvxznpqQXLN0L7gH3gHtgXw88jdRXN8iP3/dt5Or6Guf1dQ+4B9wD9+2BltT1cbvqe5rBj9/v20B7+sE57gf3gHvAPXBOD7SkfuSCm9TP2bwj98i1vEfuAfeAe+D1e8CkfpM/Y/DN+Po3o/fQe+gecA882gMmdZO6/z7VPeAecA+4B27SA5cj9XiX4m/C+93qo+9Wne8ecg+4B96xBy5J6u+4Eb5mH0DuAfeAe8A98GgPmNRv8sjl0UZwvg8T94B7wD3w+j1gUjepf3785+PQf0+LeryOOCSOrMV8Pj5+ffLC96g8ut6j83H+6x/Q3kPv4dYeMKk3pP7sA/rZ42mjHEnqR9ZijkeT+llrfVZd1sHSB7x7wD0w6wGTukn90E/qZ5D6rIm3xk2+Phi39ozx7plX6YGW1PVX5FTfc2ErPz6jY6i+Z7zVHA53ZOShZ0lN/BmrdoXVeFcDf0hqzCSfYpHgsZH4kfiR+EcyY9VGV6m11B86MXSNaww/vhXJOoKd2eBCgkUSUxs95CiH3JD+iw6TgvaDdffDWT3QknoMqOSq+tbJrJD6keOtzI+DucN2cfz5QI86xKipturEVc7isf55DyBErYOeyVCxqgc+29SoJNiQ6Irb6st1VvMZs1qXiLGeSPDYSPyag08x6CErbOejlkndhzi9YOleOLMH3p7UOazzIm/1R37OUVv1PFaVmzEVeUGIK0SoGNW/xpZPznncymbcLpb94LMMXJ5Lzp1hqnWhRrfmMz9x5Ncc/vliHbUrqfgqbp8Pc/eAe+DsHnhbUmdhOYiR2Y+NzDj8IXNMbdU1B30WB9dJCJN4Jku1VQ98tqlRSbDIjKn8lY+8UWwLBiwy1jN0JH58W/yjnJW6irHuQ9094B44swdaUtdHvarvmczK43cdQ/U94+3JyaSabWp2/ojnmNqqU0vlLK7YTleCVD3wamdd7a42NRSrOnmdr/JTk9xOdrkd/quukHqsrWK7tcaf8dSr/Ct1A+PH7z7ItVesux/O6oGW1I8ccIXUjxxvpZYe4Og5D78e5vgyFpu4yi6GH1nlEKtkkJ2+FJOJsLLxITU/64HJuM6Xc8MGqxJ/hSem+NA7rPpZR3wzG1xIsCrVr1h0xaITQ5rUfYjTC5buhTN74G1J/cxFdW3ftLkHTOruidwTtt0TZ/SASb35O/UzFts13/MmNqG/5777fve+/0QPmNRN6v8+0s6PutX+ieb0mD4U3QPuAffAth4wqZvU/yV13zzbbh6vl9fLPeAeuFoPmNRN6iZ194B7wD3gHrhJD5jUb7KRj7xbXP1W+eoYRz+2p97q+HfCHb03sTZ8Qz/kUWtFzaPquY4/AbsH9vWASb0h9WcfUs8eT2+YI4njyFrM8R1JnXXMkjXZK8/qs7Pq7r1O5+0jBK/b66+bSd2k/tffnz9yY0NCj9Rw7vfBwpuZI9fU5Pv6h7bvD+/hqAdaUtdfdVN9VKyLrfz4jI6helfzCD8HHDJqomfJePgzVu0Kq/GuBv6Q1JhJPfj18O/81JvFwakkB5/a6CrBhVR/6MTQNa4x/PjOlJ8fv+cV41R2+HjpXPAhiYVNrRwDU0ldl4hjV1j10UP4Zja4kGCRxNRGDznKIfcM+fGfX5/6Ygx8X/MSTLbBhSQ3pP/00GSp/fCqekvqcUFKrqpvvdgVUj9yvJX5cTh12C6OPx9qUYcYNdVWnbjKWTzWP+/B6KDPZKhY1b/mLSSrc6p0cnN9sMSxQ458uc4IqzXRq3UhtlVCwOSprTpxZBXDFxI98KqTP7qGaj3I6yS9hASHjcQfMvvURg9ZYTsf9avrY99VgkdWecSQEHTY6JC12vgURw2kSd2kTi+8snx7UufAypu41R/5OUdt1fNYVW7GVAfc6EDMZKC26l9jbyB18LkG86384ate1CK3k1VNsNW6ENsqM+GqHTqvXBd/loELX8Zn+8hroHbXbzM/cWTUU536WY4we6+vy8tkDWHj/2tu/3xqx9/hiFua3F+5B96W1Nk0DiNk9mMjMw5/yBxTW3XNQZ/FwXUS0iSeiVBt1QOfbWpUEiwyYyp/5SNvFNuCAfuIzAScbWpD3mqjZ9nVyLgj7eilqIfU2l2fdX7qVLVW6ipG9dj3/NJ4p2dCVlt1zcevUuPWTeJ36oGW1ONdMheqOr4tcuXxu46h+pZxHsHmQy3b1O78Ec8xtVWnlspZXLGdrgSpeuDVzrraXW1qKFZ18jpf5acmuZ3scjv8Xr8ScCbuXHMVq7hc4yw7eilqVz1V+RRLrs6ty9mKUfxeHWImX23ViYfs/IoJ3Y/fTe65J17Rbkn9yItZIfUjx1upxUGlMudVMXwZi01cZRfDj6xyiFUyyE5fislEWNn4kJqf9cBkXOfLuWGDVYm/whNTfOgd9ig/ZI6kLjYSPxK/yoiFDeYZkh5irJkNLiRYlepXLLpi0YmdJSFplTEWdh4Xf5YZZ1I3qeeeeEX7bUn9FTfLc/ah4x7Y3gOQua5d5TOpb19bXVPr11g/k3rzd+pu0Gs0qPfB+/BoD1QEnn0mdPfZo312lXyTukn938fD+VG32ldp2Nk89PH3Fn1W9ypxHnFX8ipzvOI8IHGVV5yn5+Q3F4/2gEndpP4vqT/aTM73geQecA+4B362B0zqJnWTunvAPeAecA/cpAdM6jfZyEfeHX88+Rvaj8z1GbmxHs9ck2d8q3913Xisv4p/FRyP3V9lvneY57Pvozus2RHXYFJvSP3Zh9uzx9PmeSaB6bg/pc+u91mHEWSe5ZnrMuuzWfzMuZ1Z+xFSfyT3zGv66dpXuY9+eh2uNr5J3aT+1E+lV7gBZofRM+f47C8j3pW0Z3v2CDE/kjub11Fx3hgeVW+lzpXuo5X5vgumJXX9VTfV9yzMyo/P6Biq7xlvNYcDDhl56FlSE3/Gql1hNd7VwB+SGjPJp0okeGwkfiR+JP6RBIvMWPzIiKNXMudnO3JyDTDEKjuPpZgc0zoaIyek+rMOrvMTryQHcZbfY/766kXV6Qv6hJpqo6vMNXKsiufamqP6KJcaR0tIFkn9kU1MJXkh1R965QNDntro5Fb55HUxrZF1ze103iDmePTm15j//LMSNj7F55j2NTj1qV7F8YVUbNbBdX7i/tPD+ZfwWlKPRVRyVZ0FXpUrpH7keCvz4mDqsF0cf8jIxc56thVXjTmLx/rnPYgboKr1Pfaf/y6sWNXBdnXUzw2HT+vkmGLAKQYfuEoqPuKao3oV07jqGduNq/7Ip0bWu3rgqVPtHzFIHfu75jepP9pnua+yrWPquPgVX+nqq/LDV107BKSSMZF13vf/dhWMSogQn9qqR1xt1clV2cXxh5zVBKt10Ykhq1pgZ5L1VJz27FdtOTdyn6o9yst1dDx0rQUen9ZWH7lIYtgmdZP6gPR+H5pxMNE0yHxYzfwRzzlqq04tlbN4ecAV77ypmW8GtVX/nnf/5oB6FU7rqN7lKEZ1xas+wuSY2qrP5q3joY/yNYYesnpRL2S1fxrP+qgfckxt1aPmzJ6Nq/mVji9Lrbv12smt8iA+JNiQ2ae26hlLDKk1M1ZjHV5zwCDJx66k5qP/zut/Gjpj/rWFxPEh6eHKHsUCn+PUQOa42pUevupFPcs5occave0ndRqkO4zwg0N2/q/F/Pj9yDTbo7yMZawtkpuBHL1pvuv/Ju5RjPxKjvJyjHz1dzrYLBU/iylW9cib2XtrUxeZ6zxij/olx9RW/fva+56s5jfK1xg6sqo18vGJUuUIn2OZDCOOD6zaqldY9a1gFc94KnONUQwsMtcOv+aPdNZTMaP+zDG1Vf+aU3pzkOM65gyvuejIXMf2GpmzTi2px7tkQKrj2yJXHr/rGKpvGecRbD6csk3tzh/xHFNbdWqpnMUV2+l6U6geeLWzrnZXO9fIdtSo6qiv07sxFZ8xGgs924rXWJ634tBHeI2hh0SnxqNy1A85prbqMYeZnec5wmsMXWWu9Qy7I8Kva5f/j7ricizPcxWbcVqHWEj1V2MrFjw+8LlGZVeE/pWfyFhztW9zH2usqpPjWneG11z0kOi5FrYfv88JviV1FvEIuULqR4yzpYYeRug5H39IYviwsySuEoz6QseP1Di+keQmQCo23xyVjQ+p+ZUeOH1ljMaoiQxsp+c62IrHpzLi+iKW8yq7y1M/ecioP9KrXOa0VdILXR5xld/zm38yzzmal2PYiul0sCEDc8YLslOp46gf/Wu+/xA8vpDkqQ+dGBJ/lQcmS81BB4NdycDgRyevk0HobWxA6l/1X+g+MqnP76u3JfXuBrC/bxolNK9Tv05eG6+Ne+CcHjCpz9fVpH7SJ4o73tQm9fkNdcd99zV536/QAyb0tT40qZvU/31slx8fqx039dGkrvWzfoVDxHNYO0S8Tl4n98B1esCkblL/l9R9Y17nxvReeC/cA+6BPT1gUjepm9TdA+4B94B74CY9YFJ/cCNH3zrd8y7r2Tn8GcyrX8ez1211PP1G+JnfCl+dj3H+9OceuHcPmNTfmNRfnchfaf6Qez5QO3/G2b73Qez99f4e1QMmdZP6yz52M6n7IDzqIHQd99JdeqAldf1VN9X3XPjKj8/oGKrvGW81J0hBX+SpryKOWZw6Kmc5VTz71Nbana740MFlf44FTjHkdX7FZp3czp9rBo6cTuZa2B1e/frJGD0kGPWpP+JdDH+uga25+MjJkjjSf8ZjsqEXLN0LKz3QknokK7mqvlJYMSukfuR4Onanj8gjk4RiVY/a2R6Np9isq02N8OHPOphOktfFw19hdJwOQ03yNSfrXQ3Npd5WSY0uL3o2962S6Nfc5Pf6iVFPbdWJI3Ms23kc8kZ+MCZ1H+T0gqV7YaUH3prUlYB0sTJZqK165GRb66iecWqr3uUoRnXFqx4YXupXvapT+XIOdcEiA1fpilcdPD4dZ0XXsSr8iNQrPGScZWArHzWIdbbmg0HmXPyWPsDdA+6BPT3wtqSui5VJJZOF2qpHjWxrXdUzTm3VuxzFqK74Tg98lbPqo27GYyMDV+nqo1YlA7eKzWNV9SrfiERHMWqBQX7NQz7tV3bnG/kj5pfXwD3gHtjaAy2p62NL1bcOEPiVx+86hup7xtuTo2SietRSO+tqj8bNOLVDV5s66ut0sDOp+WBXfRU+cslHBq7SFUutTmp+h8G/BftvTiJg/CEh6pDqr3SwmgdOYyNflQse6cfvPtTpBUv3wkoPtKS+kryKWSH11VpH4SAapNbNZFHZ+JCaX+mB01fGaIyayMB2eq6DXdUjhtSaIx+xkFVdrTPSu1z161gzXfN03FFeRbiKJ64y4mqjH5GXa2vN0E3qPshzT9h2T4x64G1JfbQoZ8RWSeeMsV3zdQ8Bk/rr7p3vO+/dT/SASf1J/3ZpUvcNvvUGN6G7Z7b2jPHuGZP6QaSeHwWrHTfa0aSu9bN+hxs7X5Pad7g+X4MPX/eAe+CMHjCpH0TqZ2yOa/qmdw+4B9wD7oEtPWBSN6lPv+m9paGM9QHkHnAPuAd+rgfentSrbzLTkMRC4luV8e+hq9gzcR//+fUZrzPHcO2fu4G99l77V+uBq5yNr7Zuq/M1qTd/twyhry6k4p7ZtDPCfgVS//iY/967ri/63jzynyX3znNv3rOui3E+Pz4+eeELmX1hEyeGxK95Oab5Ga92pVMLOcMQz2NmG1wlGSvnqB8951d+fCrJUx86sZkEjwSPjcQfEp9K4vjURkc+84xkzHeRb0/q3UbfhdS76zvaH19k21tzL3ntzdszz7tf3541iZw4wLvc0eGe89RWXcfIfsbt/MS1Br6ck23FaUx1MJVcwXUY/Mhcv/JXvpxX2TlPbdUjV23Vc92IaVx1sCb1854wtaSuv+qmOpuyRa78+IyOofqWcbZgIW1kzu38GZftrln5RM0nZ+zIVz3bildc9mMzH2zNobbGVK9ycz6YSvIN9TL28fEZJMwrMOhZar7G8KtPdY2jhwxMtqs8xVT6Va6Pa9pzDdV1PeKrDmzqjQ73Kg8fUuuEnuvhAzeSXc1ZDR1T9dFYs5rk5jll/ywOfnU8xY9yGBdJntqqE0dGTOOqgwnZnZWKsb6d/FtSj8VUclV960KvkPqR422ZX0Xe+JBVvViPak26RoU8qaVkqXrE1R7lZSy1VWot8Pi0tvo0n5zs6+yK+DKp5txZHHzGZXsF1+WQO5NXvL6Yc76uqj+Zu0quV33oxJBVzYjlQxw8h3mW5IBDVriMBZNzsDs5yssxrREx4ujYiqt08FUsfF0d9atOnc4Xfn2B72RVR+eV42rrOOiMAy5L4sjurCRuuZ3QY81M6jv/Tb074LpGhTSrRs0xtVX/2rD0pbccz/VzXO1KD1/1oi4HPhK/yhwLwuGlOPRMSPhDkofMMbXRcz21qaM+8kIyd6TG0HNsWjM9KaDO13iyNnlO2SZPx1OdeMiuPxWzVZ/V5BCnLnaWEccHVn0R01fGkAtG450OFqk46qkPnZhKdDAz2eErf/jUrzrjrPrAd7KqE1j8IfWldcCoD51YlsSR3VlJ3NKk/scj1tWG6D6Nd/5Z3a5RlUBzjRxTW/XIm9l7a1MXmeus2pnwch4kpP4ReY1we/OoWc2FWCeveH3dXLOfuasEoz50YlskB3nkZD3buS5xJDXUxqcy16nsXEMxW2KBHeG1rupVTudjDJV7amlOpVfjBw4/ckuu5qN3dbqzshrPvnWCbz+px7tyFlJ1fFvkyuN3HUP1LePswXbk3flnY3SNOiJLjYWebR1TY+HPtmKruOIrPXzqz/VG9ioZZDLONmOovyJgjZMTUv1VXodVf6Vf6fr0Gqu5/pRPD/CsZ1vnuBqLHLBIrdPpI2zEqnjlr3zdmOrv6ism9BXcCibX7excS23Vc/5qLHAdtjsr81i21wk91qol9SMXcoXUjxxvpRakrVLz8KtvRe8adUaUkCmSsXJeZZOjMfWhR82MqcYBrxJcJ4Pw2tjgEXPkQLxIrYMP+WiMOkitN9Kvfn1xPaP5nxXj0EbqOHqY5zg2sssLf8ZkW3M7PXK6mI6htVUnt/IRUwkOqTH0iKEjV3wdhrGQ1BxJsEjFhk9t1cGrJK55xImp7M5KxVjfRuixXm9L6mc2i5t1eyOeuR+u7f1wD1yrB3xGnrcfJvUTfibWDXtew/pw9tq6B16/B3xGnreHJvUTSD0OHTfteU3rQ91rm3uAx7yVzNgj7GocfEfUP6oGc6rkUWNsreOz8dz716R+EqlvbXTjz210r6/X1z3gHniHHjCpm9TbL8O8ww3ga/RB7x5wD9ypB0zqJnWTunvAPeAecA/cpAdM6i+wkXv/vO6Z7z75EzGVjK++7k+vwJATEh9yFNO64JGaZ92fytwD7oE794BJ3aR+yDt0JdV8w+RYZ3d+6mlcdeLIHMs2OEsf7u4B98DdeqAldf1VN9X3LMDKj8/oGKrvGW8lR8dQfSV3D0Y/baOHpJb68Gcfds6pbMWihwys2ujU2CtHxJljnd35dU5gkBpDr2LZF9/A9bdwfaDTM5buhbv0QEvqcYFKdqpvvfgVUj9yvNX56TWpvpq/BQd5ZmKNGsSoN7NXcNTYM17Uj/XYsiZBmvn1e55/xvAjlXA7PWPzWKt51DGp+xCnFyzdC3fqAZP6P4/ftxDYngaAZKtcYlmCxY+NzH61VQePzLFsB64jdX7/HPm7Zv+Tkkq4gVcbcq7qKC7Hq1jGYIcc4RVn3Qe8e8A98Mo9YFK/EKl3jVSRbmCzX23Vc90cy3bGr9gj0swxtUOvXt/X9/cbBXKR1dyqWOWrcu3zge4ecA+8cg+0pK6fXFXfc7Erj991DNX3jLeSo2OovpK7BzMiTmIhq9rEcyz71VZ9S17Grtoj0swxtVVnLHzI7A87x8BUsQrrx+8+uLVnrLsf7tIDLakfeYErpH7keFesNSLZmC9xlXodK34wWk9roCtuhiVnJoM484uczv899vjTuOZSr8sjrjmh41dpUvchrv1g3f1wlx4wqb/An7TdpdmudB0mdR/iV+pHz8X9eFQPmNRN6uUn2aMa7Ip1TOg+QK/Yl56T+/KIHjCpm9TfjtSPuHFcwwewe8A9cMUeMKmb1E3q7gH3gHvAPXCTHjCpn7yR8aj3iu/mPCd/yrhCD/j+cB9eoQ/vNAeT+omk7gPLB9adDouzrsX3ie+Ts3rrHeu+PannP+/SJiAWUv0r+rsfVM+6/vzLdit7s4r5+M+vT16rOSPckbVG45wRY51Dbq2/0gsrmK3jGu83C+/YAyb1j19ffyOeNx9Cz/5V++hDqvt769X5PBPXXfvnx8envh6dkxKM6o/Wjfwg4CPqaI1XJnWuo1vnzk9e1xOrcXCWJmr3wLgH3p7UuwZ5hNRnB1g35sh/F1LnGiF37D1SiUT1PbVyzhmknseY2Udf02y8lXg3p33xYOAAABlySURBVM5PzZV7YgVDPcvxwe71ed/1aUldfzpV9T3NsvKLcjqG6nvGW8mBtJE5p/NnXGV3h9Pol84yaWPnHOxq3OyjBv7Kpt5qDFyX1117kDjzCHkkqQehzEhFx86fmNVGV1nlEicWduj4sTsfeTPZXRvXSxybeupfjVU46iErTB4rY8jtemM1Ds7yfQnLez/f+5bUY/GUXFXfurArpH7keFvmV5E3PmRVL9ajW5Pu8IIIqQdBhq36ik2NkRzVzDGtU8XwhUSv5tldu5I6OlLH7vRuvSGULq/zQ7qQcMYRV//Il+uMsFpzRa+uMfuUSFWnPj4kfpU5lu3AVr6RX+t3vQFmFgdnOT/YvUbvu0Ym9Z3/pt6RTNxM3eGkZBg4tVXPscoO3+w1qhkxXrkO/ixX5tFdOwSOjFqq5zlku1pvCCbLnNvZmYgV15EyOSojr8JrvREm5q+vnPed++fTCK55hNWa4NWXc8HgzzbzIK6ywmo89K43wM3i4Czn977X6H3XyKS+k9RHN013OAVJap7aqgdmZmudTl+tETjFqp5rj2KB7a49CDyTeLbzWCNbSSR0XqMcjUHCSI2FXvkrH3mj2BYMWJXVten1Kzb0UUyxuW7Oy/aodoXVsULvegPcLA7O8n0Jy3s/3/uW1PXRsup7FnXl8buOofqe8bbkdI/YO/9K7e5wyoSodtbVjjGzvTIPzQld7ZyvsRFWcblG2N21Z1KvCD1yu/w8ViaRsLMv52AHASsJq64YdGTOwx+yqqHxVczfOfV1ja5121r8fqOpNbsaitG5dn7FzPZ2Ftda1ueHu9foPdeoJfUjG2KF1I8cb6UWpK1S8/Crb4teHVCQJTLXw4/UOD6kxkY6eCRYbCR+JH6VEQsbTCWr6wYHsSPxIyN3lA8OCfFkSbySFTF3vlE+OZA5cktOhVXfiChHsaiR1wR89ut4VR7xnEe9Lo5f5WhvRzGtYf09icr7vr7vb0vqZzdJdUjNCPHsOT2rfnXtK2NH3t7clfrGrB8MR6/VbF9n8aPn43o/1wte+3PX3qS+8IWzvU2YDyqTet/MsVZ5vfauu/P6df6ptRnt7Sj2U/P1uNfrIe/J2p6Y1E8k9WhCPbCOJvWo171++gbQ6372XPTReNafPReP9+c9kNfjJ/skz8X2Gml4na69Tib1k0ndN8C1bwDvj/fHPeAeuFMPmNRN6sMvvt2p2X0tPrzdA+6Bu/eASd2kblJ3D7gH3APugZv0gEn9Jht593efvj5/wnIPuAfcA/MeMKm/AKk/+jfzz7gRqi/sMe4oljHYISNPbfVVMbAr44G1nB8SXiOvkXvgdXrApG5S/4s499zAM5Id1SQXCTbb4ceHBFvJFUyVZ9/rHGDeK++Ve+DPHmhJXX+qVfU9C7jyi3I6hup7xlvJ0TFUX8ndg9FP2+ghqaU+/NmHnXMqW7HoIQOrNjo19soRgY5i3/P5/kSecdkeYat5V/ng4k+p/OdUfx4GrI2l18U98Lo90JJ6bKqSnepbN3yF1I8cb3V+ek2qr+ZvwUGemVijBjHqzewVHDX2jBf1Yz22rEkQaH79nmcfC4ySb6drrZxDLEutlWMm9dc9tPJe2vZeugd+94BJ/Z/H71sIbE8DQbJVLrEsweLHRma/2qqDR+ZYtgPXkXr+DfDfNf/+9+/VmJJvp+daiiOW5Qom59j+fTh4LbwW7oHX6wGT+oVIvbuBKtINbParrXqum2PZzvgVe0Sgs1jE8+v7+v5+o0At5GhuK5hRvmOvd6B5z7xn794DLanrJ1fV9yzYyuN3HUP1PeOt5OgYqq/k7sGMiJNYyKo28RzLfrVV35KXsav2iEC3xsAjdQ74kBrL+gjjx+8+/HO/2HZP3KEHWlI/8uJWSP3I8a5Ya0SyMV/iKvU6VvxgtJ7WQFfcDEvOTAaB5hc5I3KtYuob1exiK+Oa1H2A0yeW7oU79YBJ/QX+pO1ODXeVazGp+yC/Si96Hu7FI3vApG5SLx/5H9lkV6tlQvcherWe9Hzck0f1gEndpP52pH7UzeM6PojdA+6Bq/WASd2kblJ3D7gH3APugZv0gEn9Jht5tXeLno8/wbgH3APugef3gEn9ZFKPf791Yz+/sb3mXnP3wHV6wOfg8/bCpH4iqbuRn9fIRxzg3q/X2q8j9tw1jtnzlXtnBeP9eHw/TOonkXo0sJv48QZ91k3uvXqdvXpWT3icbT0xu4d8Jm5bz7399/aknn+IRReSWEj1r+izBl+p8UyM/pDLM8e9wljdXvE793vn+PGfX5+89tbQvCNrad29OvMJubeG5lFPfWfqj+7vnrkxZsic3/VhxmWbdTt7H1bmN8PM4vnabG9/I2BS//j19WtuuXkg9OxfsaNxX6l59RfcVq7vbphqr/TQVX312o86YHU8Dm/1/ZR+h+uDYJ+1hqM+qnpwZV7P3ofZPFfiM8zKdRvTk/3bk3rXHI+Self3iv53JvXugNEDWPXV/TvjsF0d+xm4u1/fGWs46qOuD2fzePY+rMxzhpnFZ9fseE/osTYtqev/5ET1PQu68tvvOobqe8ZbyYG0kTmn82dcZc+aVh91Z0LtYp0/xq9qVPPKvlxT66ArRvPVX2GruOZnnRr4K1trggupfs1D17jmhd7tFQdwSHRy4yDVw1RtdJXkhVR/6MTQNa4x/PjOlHkstdFV6lzUHzoxdI1rDD++IyR7h6Qmdt7XiGsMnbwqvhKjjkrN63vwmn3WzZdrejROHcsxeXfr05J6JCi5qt4V6/wrpH7keN08Kn9F3viQVV6sR7cmo6aGYKqaOaa26pEbNjVUzzEwI5nzqaH+rFd2+PBnfTQ+4ymGOlWsw+EnV+fQ1RnuVUHo/47xD2F1ZASJgf8aX0gOP7hcBz+4Ll/jnT7q1S6H8fO8wBPHDjny5TojrNZc0avrCwKd5c4wOZ7t72v+HidiGs+2YvO8xj34/cYorx81VtcRXK6Dn3rf8/z9Zkz96KP5BubROONYmtSnN3HVJB1xd35qVAcJsVFTQzhgVVYxfEjwaoeOjQS3IqucyketKhY+9Xc6NbJUfMTUDp1XlUdMZa6R87C7veKAzpK8r/rpE3uOqa14DlYksYzPdnUAZ0xlj3q1wuPT+eFDVnMBn2XkVHhqIVcwYFVW1wepsn+KR98a05qqR72qVvZlm3l0PUic9cRWWa0Z+Cwjr8JrvRXMbL6PxvN8bG8jd39SP+mLcl0jBvFsiYFHktvZ2Q9+JKucykeNKhY+9Xc6NbJUfMSyDT78GlMdDHIUA1MdQHr4hs6LnJAcjkiNaVz9HbbDa+4qJufstZkrMtep/JWPvFFsCwbsFlntX+TrPud6VazykVfFsi/b5FY9SIx1Q+JHVv7KN8ITQ47yAzOa7xFx5mG5jcxZr5bU490vINXxbZErj991DNW3jLMH230i7/wrY0TTd42fSUnr5ZjamaA6O/u1fqdXOZWP/IhpHDv7FI/eyZyrds7RWOhqK7bzK6bap3z4hq2+OPT04FOd2p2v8kdO56feDDPqOa2xosdcdD6qk9/5Kv9s7qOaxB69Pt0/ala+77nWb7xzH1CHHK1XYTWuuVUPfte83j7EvLr5ck2j+KP7yBiWPeG3pH7koq2Q+pHjrdSCtFVqHn71bdFHjQ0RIbUuPiQxbCR+lRFTe1Wv8iqf1mMeyIhpTqdrjaxTC0kcG4kfiV9lxMIGM5LVXnEo/y3/PGi/xkkkiK8aM0gvv0Z4YlWO1j/qsGQcrd35FIMOVmXEwgaTpWLRM2br9eV903o5FjbxUSwwo3iOUROp4+ALWfffNfusmy/XU10LsVmu4qz3pD1bm7cl9dnCPBrfegjNxlshqBXMbJx3jM8OoldYk6P77WrX/A7Xd7U1r+Yzu1dG8bvvYbVeP+EzqZ/0M7GxmaMG37rZM8KexbeO9274I/fq2Wt398Py7tcX/fIq/Tea5yj2Stf47Pv36PFM6ieS+pGN3JF2+Hnl5sBfyYw9267mgO/ssVfrzw6l1TpXx/GIu5JXn/ud53f1/hvNbxSLPZvF77yvz742k/rJpP7sDfV4+/8tymvntXMPuAdevQdM6ib1f78k9OrN7Pn7QHYPuAfevQdM6iZ1k7p7wD3gHnAP3KQHTOo32ch3f3fq6/cnNPeAe8A9MPgfuhy5OFf8O/Ujr+/sWo/+zfzZ84v6fOlNJeOqD50YsvKHjzgSHxK/Smqp1Lh1H/7uAffAXXvAn9Rf4JP6q5B6d5OMCDhyiCOpk+0RlhyVVb7Grftgdw+4B+7WAy2p60+1qr5nAVY+qesYqu8ZbyVHx1B9JXcPRokZPSS11Ic/+7BzTmUrFj1kYNVGp8ZeOSLQUex7Pt+fyDMu2yNsNe8qH1z8iY3/zMYHOv1g6V64Sw+0pB4XqGSn+taLXyH1I8dbnZ9ek+qr+VtwkGcm1qhBjHozewVHjT3jRf1Yjy1rEgSaX7/n2ccCo+Tb6Vor5xDLUmvlmEndh3juCdvuiTv0gEn9n8fvWwhsz8ZDslUusSzB4sdGZr/aqoNH5li2A9eRevf71iMCncU03um/515/qieuUmup37oPb/eAe+CuPWBSvxCpd01WkW5gs19t1XPdHMt2xq/YIwKdxSKeX9/Xt++Lcsx3NC4YSx/u7gH3wJ16oCV1/eSq+p6LX3n8rmOovme8lRwdQ/WV3D2YEXESC1nVJp5j2a+26lvyMnbVHhHo1hh4pM4BH1JjWR9h/PjdB3nuF9vuiTv0QEvqR17cCqkfOd4Va41INuZLXKVex4ofjNbTGuiKm2HJmckg0PwiZ0SuVUx9o5pdbGVck7oPcPrE0r1wpx4wqb/An7TdqeGuci0mdR/kV+lFz8O9eGQPmNRN6uUj/yOb7Gq1TOg+RK/Wk56Pe/KoHjCpm9TfjtSPunlcxwexe8A9cLUeMKm/Gan/r//z+enXtjX47//t4zNeV1i3qx0gno9JzT1wrR4wqZvUL0FWVyDMbg4m9WsdWiYR74d7oO8Bk/qTSP3jP78+ef1kQ3bEtdXPN8+35j0Dz9yQ1ZhVrPJF7k+Tus4r9058PyD79thX6M09835mDmsU8ohxqbdaK374aRXb4fTHozrMkX6u8afWTK/l2deuY6/oh93LK4M9ivGftP1+V9U1d+d/dO1zfkVwe3xKNHvyn5EzmmMVq3wxz6uS+lGHQPQIh2/ulxX7kdyV+lfAnHF/bl23R0n90fyt+3CFNWPOz752xt0qj7in/Un9SZ/U2dyu0Ts/eUfJo8i0I8Cj6h9RZ+scO7xJ/feb0qoPt5JTVePqvmfdn6N1eJSYHs0fza2KXWHNmNezr51xt8pTSV1/ZU31rZMM/MondR1D9T3jreTQcBxI2OSqfzVW4aiHrDB5rIwh9wgJWUJgyM4f8ZUYmEoyhkrFqZ/xsi/bmt/p5GgcH3IUC0zEZ6SutdDJjXz1qX8Uyznk0QOjmz/3Ezn4K5uYSnAh1R965QNDntro5Fb55HUxrZF1zd2qU4s8tdFVggup/tCJoWtcY/jxrcggJn1pTiYttTUHXXP36Hn+aqOr1DHUHzoxdI1rDD++Fcn1qiQvfKFXsc6v2KxrXY3hzzUDozH07t4Ofxcj92sMNbKu5Kp6xs3sFVKPGjqG6rP6e+K5QWioqKU6tfEh8avMsWx3tUd+6sd65DXRxkEHj8x5SiSh5xdkgh8bmf3YIznKzTHqqL/TwXZS8zKmimUf9iqpBz7GIS/rla3zIg9JTG32tbu5o+eqvou8HFNb9YzNMeaA7OL4Q85qgqWmSmLIqpbiR3q+H8BWcyQWkviqT+e6JV/rZz3f40oKqn+P9zdhZEyu39mvvGZcU3Xt4VO/6uQhiWlO1gMLjjz1VTHFoXf3tkl98li9uklZVG7ILL83qP/CW66ZbfIZR2WF1Xh3Yymm0nOeEouSRUUgI2yVS40sM1Zt1TVP/Z2u+ErXvByvYtmHvUrqeYywqZEl2OxXO2PCZo+7G7/qWXKIVfZKLGOqOvhCdniNgUGSj11JzUcnbybz/aB4xlIfesTQkeCzjHiFJw+5ggH7XfNPolaSUL3Cdj6t3+mvvGZcU16flfWIHH3lHK2JrnjVycXHvCrZ3dsVtvIN/009NpMk1fGtyqt+Uu/mv3qzcTNTJ+dlO3CVb+SndiVpEJUVTn0QRUglkNDVB67CVDjwlaQGMbVVJx5S/Z2u+ErXvByvYtmHfQSp5/HDpj4xbGT2h81ezm58ehMZeapnexRjTDDI7MdGZhz+kFtiYJE5P/xae49ODWSuUfkrH3mj2BYM2JBxn3f2KEZOxuDfK7lGZK5T+SsfeaPYFgxYldW1Vz5ycgwbGbhKVx+1Khm4Dju7t6t66mtJXUlcdU1e1VdIXcdQfXWMrbhRA0VsFNexFJd1tcmpfBHr/OQdJSEKlUoiqgcGG0letvFXMmPVVl1z1d/piq90zcvxKpZ92EeQetSazYHxkODVpg9Wb/zoK3pLdXpuJcaYyFEdMLm++jXG+Brv6qs/65ofa7O6PjoXanRzIo7UOeBDVjWIITtMd+BnElA762r/Hu/PNwX4Q951zbjGreuh+NCxkVG30hXL2J3UfMV0vbu6Ry2p6yCP6iuk/ugYW/O7G4o63LAqI6Z2VaOLZ3/OzXHmcbQMooAkVFYEoljVqzzyK6l4dMXhQ+pYI11rqE4dlcTVhz6LPULqUZtxVM7GVCx65NAP3Y2f+2jWZ8RHeaMY81FM9mFnqTnoYLArGRj86OSFXD38yI1amq+18WeM+sEjqQsmS3AqFdMRA36k5oSOH1nFsw/7rmvG9cWaoCMrH7GQrCMSHxjNzzo5SHKxFU89ZHdvr+7R25I6C/huEjJ5plRSeua4R401I/Wjxlmpo/3a3fyKeUd99fB7x7XprtlrNv6zzW7djvaP7unVPTKpT75Qd/Sm/XS9FeI4GmNS//uvDPausfbP6ABQ3DvpqwffO63J7Fq9Ztcg9Nin7p7eskcmdZP6X//Wu5VwIO1KRi38W+t2eOpVsst5xP/5z3/PGm8013xAd4dAxtm+zsHtvfBeVD1w1L1sUn8zUq+ayT4fMu4B94B74B49YFI3qf/1BRLf3Pe4ub2P3kf3wPv1gEndpN6S+lGPg/YeLN23g/fWW8nj26kr2K2Yo6+HelvncQU86zz6FnA3z5/uy25e9r8fgV5xz03qTyT1+DfZKzZBNacrHZxBXtUcO3+FXfEpwai+kjvDHD3XGO+VSZ316ta585N3pf5kTpYm9Sv0gEndpF4S5pUOzY4QO//eG0uJRPW99TTv6Llq7VX96GtaHXeE6+bU+al1pf5kTpYm9Sv0QEvq+qtuqu+Z9MqPz+gYqu8Z78yc/A1oHSt/EsfOOdia2+nUIF7Z1FuNgevyugMTYgrJi3mFxIdciQU249Smrvqon6Vi9ugQSUj0lTrMA6za6CrBhVR/6MTQNa4x/PhWZXdtXC9xbOqqfzVW4aiHrDB5rIwht+vT8Hcxci1NwHftgZbU44KVXFXfuhgrpH7keFvntwUPEZIDQYat+opNjZEc1cwxrVPF8IVEr+bZHYiZSCCerxpCSMyDOBK/yhzLdld75Nf6nR79XPU0hNLldX7mHRJdsVt9uc5qvo7Z6dU1Zp8SqerUxIfErzLHsh3Yyjfya/2uT03qJmztk3fTTeobH78rGX4dPvLv5KNYxq422qhmxHjlevizXJlHd1hWxMK4kFCWX+M1n+yJUaOyO9/Ir/U6vSJ1CCbLrkb2c+3ZH3a1duCz7PC5blXzO/fv/7vU37l/Po3gmjOuqhdY8OjYmp992aa25qBXWGLIrk+JW5rc37EHTOovTOrasJA3vrDRsxzFAtsdlh2JRM4opuNDYPhyXrZHtSssdbdKJZHQea3WYS7InFf5Kx95o9gWDFiV1bXp9Ss29FFMsbluzsv2qHaF1bFC7/o042yb3N+pB1pS10eTqu9ZnJXH7zqG6nvGOzMnE6LaWVc75pTtlXlqTuhq53yNjbCKyzXC7g7LEdFEbBTXcRSXdbXJqXwR6/zkxXV01wIGmUkk7OwDm2XMQ+eiOtjOV/kjp/NTbxWj+O+c+rpG17ptLX6/mdSaXQ3F6Fw7v2K6vd2y71rPusn/Dj3QkvqRF7dC6keOd2YtyBKZx8KP1Dg+pMZGOngkWGwkfiR+lRELG0wlu8NyRjQRz6+v8ZI/j1nlVHl5/C6P+lsPd4gnS+pVkjlorPMpBh2syoiFDSZLxaJnTGWPiHIUi1p5TcBnfx63i2c/9cjPcfwquz7duu9a07qJ/dV7wKT+4OP3V2+Abv7dgdnhr+j34X7fA3rUn973++77Fc+Zq83JpG5SLz8Rjg7NqzVxNR8f7Pc+2Lv+9L7fe9+re92+P/f8LUldH0dv0aN5Zo+utzbYaPyttY7Gdwfn0eNcvR6PuCt59bnfcX7uyz8P8Tvusa9p/x6/Jam7YfY3jNfOa+cecA+4B67bAyb1jY/f3czXbWbvjffGPeAeePceMKmb1Mt/U69uDH38XMVfxcc3q68837us9ZXX2HPzG4A79oBJfQepf3z8+ozXHRti5ZqCcCpc56+wR/g+Pz4+9bW15quQe3Vdr7bW1TXYZ1J1DxzfAyZ1k3pJ0KObrSOUzj+qlWP575VzXO0gdGzIHXtVbhlvteaRuG5NO/+RY2utI9Za61k//jD3mnpNowf+P+ZxjZSife/AAAAAAElFTkSuQmCC;" vertex="1" parent="1">
          <mxGeometry x="120" y="200" width="501" height="217" as="geometry" />
        </mxCell>
        <mxCell id="9vh1Hj67I27Qi9RlaAKU-6" style="edgeStyle=orthogonalEdgeStyle;rounded=1;orthogonalLoop=1;jettySize=auto;html=1;shadow=1;strokeColor=#CC0000;" edge="1" parent="1" source="9vh1Hj67I27Qi9RlaAKU-7">
          <mxGeometry relative="1" as="geometry">
            <mxPoint x="470" y="640" as="targetPoint" />
          </mxGeometry>
        </mxCell>
        <mxCell id="9vh1Hj67I27Qi9RlaAKU-7" value="" style="shape=image;verticalLabelPosition=bottom;labelBackgroundColor=#ffffff;verticalAlign=top;aspect=fixed;imageAspect=0;image=data:image/png,iVBORw0KGgoAAAANSUhEUgAAAaMAAADcCAYAAADdls5UAAAgAElEQVR4Ae2dXY4bu5KEe+0HZyUD3JUMMEu4r7OE+ziPHmT3+exwOMliSVWSSh0GhPyLTLLIKKb+Wv74z//954c//ue//+dHPdwf+8+1yppkTcKBcCAcuJ8DH90iphndv7DdusaXdQ0HwoFwoOdA24yyWP1iZV2yLuFAOBAOnMOBNKPmbcqQ7RyyZV2zruFAODDiQNuM8jZdCDMiTPzhRjgQDpzBgY/uiwppRiHbGWRLzfAqHAgHRhxoXxmNwPGHSOFAOBAOhANncCDNKJ8Z5Sv84UA4EA48nQNpRiHh00l4xrOs1Myz93DgWhxIM0ozuqkZfXz8/SOPrMGzOJBGc61Gs7JfaUZpRmlGaayXe2KxcrgFc62GlWaUZvTyzeiH/HvWM/GzxpVL+6nOxvoJ+vHjjwYyi81qXiWm15dGc61Gs7JfaUZpRmlGT3xlpAcs+qw5gCnpuFnMsVe09fpWDrdgrtWw0ozSjNKMntiMaAp60OLr5Aw3i3W1rubT60ujuVajWdmvNKM0ozSjCzWjWQPRw3qGu2pMr2/lcAvmWg3rpZrRx18fNx2Mr0K6mj+PV5nTWfPQA00PidI1Vrr+c3sLr7kd1sdSW3N9XMWprjk6nvuxV+vqGJ1OPR1TcRpH13jp+q+zHb9iz2pWTGsoFl3jpc/+7cE6r//++PvSZ4dfz5H2x8c1ztU0o4NeGb1DI91zA+w5WGYHEDEOIuyRBLciRzXwaw18nSzcnn9ad1XX+l2OxtEdh38kHb9ij2qpv+rM/uk4M1zFwG7hlKu3NCLG0Tpn6o8eT68lzeiGQ/7KB/qV517E3Tv/urn0Hzcbfrc7rPvULp0a6se3IjVvVm+EqzHIUwx+fJ29Mj/FUIvxNKb6DKcxraN+rbWia+6opmK05sivmNL1n9sVA684PWzTjOZvx12mGXU/lKobvarXYaYP8tTXHXhbceqo3Mrp4u5TW2uPdMWXDs79HiucYsgb+RXrOrkjv9csHDkj6bWwR3j83aGhBwcHiONmfj1sZjiNzfTVeiOc1nbMlq25K7rXG+XMcKPYyD8aQ/0ruYoZ6aOaji+c/hvlwcNZI9Lc0ivHfdjUUxu9pOZ2WI2T1/k0Rp2ZrEaiD7Dq65rNVpw6Krdyurj71NbaI13xm7/a/e///fcPf3jh2aHnh5tiVa+abvs42Fs1uzqa4zp1R7Kr59gOo+MUvsNQh5jmuD6qobnU2yupMcr713/960c9iHNT6cGhOvGS+m/mX8VpjZm+Wm+E09qO2bI1d0X3eqOcGW4UG/lHY6h/JVcxI52aozj+wuk/8twPD0fNiDxwLkdx/CUrB9t1txXnYzm2i/v99ZUzfjLJIU6tsjt9qw454EZ1fDzy1O86mJHUsT7H714Z6X8hUY1oVAw/h2Z3oLlPbdU/J7PwTL7DaR3VmZ/nKEZ1xateGB7qV72r0/k8h7pgkYXrdMWrDh6fjrOi61gd3m8Wbj6VeoiUTkz9+Erqv84G6zj8W3KU5363u7qO2bK7GjOf1xthZ7hRbOQfjaH+ldwVTNXUf7MxVnBwdKsZMQ545F5/5XmO2qozhsqtuN9fX+P9elWktYipTw921Tus5qk+y/MYeeof6WBdFp5HxTa/wLDSjHQQPwz9kFNb9c/JvGgzml0fMb+WretxPDbS8/EjGXckC7eK9bFGNdVfN1f94yZDdgdJ5yOfWGe7rxuPcTtJbc1TH/7OR70O4/PqbPJXpc5hljPDdTH1lT6r3cU0v4uXz/+t4MB0ueob4eDiqBkRJx/pfmyk4/CX9JjaqmsO+lYc3EjqoV0YPfjdnsVG9b2G216TOuof6WBnsnIPb0afFyFNxQ9EtV1Xezpxqd+N19VR30ifjakxzce/6uvwlUs+snCdrlhqjaTmjzD492Arp26urX/cgIrD5/n4Fdvp4FZkl68+raF+1wun/1ZsrT3Tta7r5Lnf7b048CtSx5rhFec6ee7v7FUsvN1qRuCoO7K3/BWf1fAY9ZBbcXAzOTvsR7HPQ17ewlutXzivqTZ11DfSwW7Jthnd8zadH2orNhjk5qTlbbMup3z6qHqKG+mjcbWW5iq+83c+z9Haq/PUHHRysUvqWFu65q3kcnPNDpQOg6+k/pv5RzjN6XTNc30VD07zy6f/Opu8Lal1XCfX/W6v4MDslTrWVq5iVdc89ZdeMf03wjoOPo+akdZBJweJv6T7sF1qDjoYbCR+JP6S+GayDnd9KFYP/vJ3Nj6k5nd64fThGI1RE+lzUL/XwfZ6S19gIPlV5Mph+Spzfdd56I31qvrokHvV+WZe6/8lh95Xo4akmOjzr3/X+qw0kDPXsX1lpAPu/cxIc8/S04y2iXXW2lP3CgdnmtH64X6F/dQ5wsOSaUbHnAdpRs0fx/pbRmoX+Y5uRlrfdSX9VXW/JrVvvSY9GB6pa4OZ6TUn/feoOeqYM/1R8/FxZnPSmOe9mu28TUPabkh/vC0mb8vVeh7djLbG8z285Csjv4jY20Q8eo2edTjpgTnTa37671Hz1TFn+qPm4+PM5qQxz3s1+2g+p97jzxBf8zSj5pWZL1LsP4n6aodT5vO+b8l1e5t78s978uprkmaUZrT0zR4nendAxPe9GsIz99v5GPv6zSnNKM3opmaUm//6N3/2MHv4ShxIM0ozSjMKB8KBcODpHDi8GdW3WvLNljzjeqVnXJlL+BgOvD4HDm1GaUKvv+G5KbNH4UA48IocaH+BQSe6549e04xCcuVO9PAhHAgHVjnQNqO9v03HYGlGIR5ciAwXwoFwYA8H2rfp0oxCoj0kCjZ8CQfCgXs50L4y0qIrb9PVK6K8KgoZlTfRw4dwIBzYw4FDmhEDpiGFfHAhMlwIB8KBPRxom1HepguJ9pAo2PAlHAgH7uVAPjPKH7s9/Y/d7iVx8nMQhgPX50DbjHRjVz4zAp+36a5PCPYyMnsZDoQDj+RAmlFeGeWVUTgQDoQDT+fAoc2oumi+WZdnU498NpWxwrdw4D04cHgzCjHegxjZx+xjOBAOPJIDaUZ5ef70l+ePJHzGygEbDrwmB9KMLt6Mjv5/669+o9Z6PHJNPv76eJlmzn92d/U9zPxfs1mcvS9v2YwefVM+ejwlxSMPXh33WfrW9T6qGdGEXJ65Lls824qfObfU/p4N5Mh9TzM64JXRMw+BrcP5SLK8Qq1Xut5qRDwesTbP5Nkjri9jfO+G1jajvb/A8K//+tfPtypUP5Nc3JjIGgvdJfPA71i1O6zGRzXwl6TGluRZPBI8NhI/Ej8S/0yCRToWP7Li6J30fLcrx2uAIdbZPpZiPKZ1NEZOSfW7Dm7kJ95Jf0WE/TXm359cVB1ewBNqqo2u0mt4rIt7bc1RfZZLjXw79ns3CHjwCHlIM6qJahNS/YyL4IYa1R7F8ZesXGzX3VZcN+ZWvNbD16QOwK7W19i/f+6hWNXBjuqonwMXn9bxmGLAKQYfuE4qvuKao3oX07jqjh2Nq/7Kp4bro3rgqdPtHzFtQj99H1/N6F6eOa/cZjykx9XudPVVDbfLl2aUZgS/zpZtM9JBV3+BQQ9b1bXWUTo3DdLr7vVXvueorbqP1eU6pjvMOBj94Puq93ujUozqHdbHxp7leazLUYzqYF3OMB5TW/WquWVvjav5nV6+7qF1u/3TuOszvnhMbdWr5pa9Na7mdzo+l143dhrSIzjw+UOp9bbcaLBXbEbMdXQT4QeHHPkr7jG1VaeWyq24Yjudw5CYHprlU1t1j5HfyVmex8hX/0gH61LxWzHFql55W/attamL9Dr32DM+eExt1b+u/dfbfZ3tc5zlawwd6XVip/k8gwPtK6MrfGaki+U3ldtgR/6Ke0xt1amlciuu2JGuh6LqhVfbdbVHtb2G21Wjq6O+kT4aU/GO0VjpbiteYz5vxaHP8BpDL4lOjXvljA8eU1v1msOW7fOc4TWGrtJrYedtujQmuHC2PKQZnT1Jr683EfoMQ2yE9Ti4kqMYfmSXQ6yTHIJIxfjh2Nn4kJrf6YXTh2M0Rk1kYUe618FWPD6VFdcHMc/r7FGe+slDVv2Z3uUyp70SLozyiKv8mt/2KyHP0TyPYStmpIMtWRgeaUa/1oI1iTxnTdpmpIu9+jad5kQ/Z7PuWVc9iO+pk9zX29sz9yTN6Hvt95lc2qqdZiTPArcW68rxNKMcKnv5m0YUzuzlzD34NKM3aUb+NpPaRZCjm5HWd/0eQiY3B2A48D05kGb0Js0oN/D3vIGz79n3d+FAmlGa0c8Pq9+F1LmOHNDhwPU4cOlm9MjfBTua3Hx7qatLDNlh9vqOrLV37OCvdzBkz7Jnj+bA5x+9zgZ95W/T3dKMup9vmV3/WbGV5rCCWZ3fkbVWxwwuB1o4EA6scuDSr4xWL1JxaUa5OZQP0cOHcOA1ONA2o1f/BQZeEXWNRWMadz/2ChF5VaGSPPWh3xvzfOySjKFyFicGfmSXP1/lfY2bkj2KzH58Jw4c0oxqwfTHUVU/czG12TCONxnHuE0esvtRzNFB7v6qoT7V98SYyyy/wzgezNbY4NKMcvjBhchw4dEcOOwzI21Aqp95QV1jcd+W7fN792Y0a1i+FrFzIIUD4cCjOJBmtPDVbj/AsZG6WepTvTBqq+4x6u3FOJ46Wh9MSY1Hz6ETDoQDz+RA24xe/TMjFsxf9ZTffVs2tWaSAxwMNhJ/SfWpvidGvVl+h3E8mK2xweVtuhxGcCEyXHg0Bw77zOiRE68G4w/G32o+ozzyO+mHvNroKqmBr7OJqXTc3ljla07pXnNklz/NKAcQ/IgMFx7NgbYZ6SRe+e+MdJ7R77950ozuX8PwMGsYDtzGgTSjhc+MvgO50ohuu4G+AzdyjeHGIziQZpRm9POtvEcQLmPkYAsHwoGOA2lGaUZpRuFAOBAOPJ0DaUYh4dNJ2D1Lii/PnsOB78WBSzcjvhkX0n4v0ma/s9/hwPtxoP07I93oV/423S3NyL/6rdca/f0Inj3NnoYD1+DApV8Z3UKyNKNrEPOWvU1O9jYcuC4H2mb06r/AwCuirrFoTOPux14l78ofkyqm6mKrrn+IWv58pfq6N88qd4LLHocD2xxo36bb24xqofXHUVU/cxO02TCONxnHuE0ecs8PpVYODYcmg70VY7w0o22SslaRWatw4H058PnKqJrPaJNXPzPSBqT6qO4R/q6xuG/L9nnMmhGNBlm5qnutWcyxsd/3JsveZm/DgW0OpBktfLV71lRujYWc2+TMGmWNwoHvw4G2Ge19m05fCal+NpH8VU+N574te2WONJySjifm/s+5fPz9+cqpi+HL23Tf52ZjzyOz5+HAnxw47DOjRy5uNRh/MP5W8xnlkT+SNB2VhcXu8mYx8GlGf5KStYnM2oQD34cD7bfplACrnxlpTvR1AqUZra9VeJW1CgfelwNpRgufGZ11A6QRve+NdRZnUjeceVcOpBk9sRm9K6lyXTkww4FwYC8H0ozSjP74UsZeEgWfgyccCAfu5UCaUZpRmlE4EA6EA0/nQJpRSPh0Et77jCr5eVYeDlyfA59f7T7iFxhChuuTIXuYPQwHwoFnceDzlVGaUQj4LAJm3HAvHAgHigOH/NGr/uqC6iFZSBYOhAPhQDiwwoFDmlENpE1I9ZVJBBOyhgPhQDjwvTlw2BcYtAGpHoJ9b4Jl/7P/4UA4sMKBNKN8my7fpgsHwoFw4OkcaJvRVX61e6XbBpNnZeFAOBAOvD4HDmlG2ejX3+jsUfYoHAgHXpkDbTPSCedXu0Ng5UP08CEcCAfO4ECaUd4rfvp7xWcQOzVzYIYD1+JAmlGaUZpROBAOhANP50CaUUj4dBLmGey1nsFmv7JfZ3AgzSjNKM0oHAgHwoGncyDNKCRcIuHHXx8/6nHGM6LVmmfMYbVm/a+8q/Oc4T7++vtHPWaYK8SOWo8rXGvm+JhXgmlGaUZLB+Po0B75z7iBzxhrpeaRB+89zeie3DP248h1OWN+qfmYJnLUOre/TafF89Xua22o7t0j9JXD/Kh5nDHWSs0jD917Gso9uUftgdY5cl20bvTveea0zegKv8DAjYmEwGWXjh8bH5I4eWdIDjqVOo76S/+a29fbYR7D1vxOB4dUDD4kMWyVo9jIT67G0UtWXO2ZTi0kWGyVxEqqv/SVGDlg3Z4duHAI+avG72/FaRxdJXkl1V965wNDntro5Hb55I1iWsN1zS19tD7lH8W8Ruzv2Xx839u36fY2oyqqP46qug94hK03GvXwcfO4v+xZDHzN3efPAaUSPHKWB4b8slUn7n7FqK541Vcw4BWrus+hw+MbYd3v9TXf9RnWY2qrvmd8zVOdeY0OVOcS+K+xt5sReK2jOnGVozj+kj4+Meq4jV/zFOO64ksfrU+aURqMc2XLbl8ZadLq23R6gKuutY7SuUFcVv3yjcaZxcjpmgqxmezy/HBTW3Wtq/6RrnjVwSM1Vjp+leoHTxy7wxDrsI4fYaihcob1mNroLn0uOpbGyPP46LDtuEcusc5eiTmmq4Ov5AivMTBI8rE7qfno5CFH60M8Mk1plQOXbUajC6yb6pbYKKf8HFQqZ3hi4DvbY1uYEZ48lWCRFVPd7VmMuo7Z8jOGSnJmcjQOdSpOvmJVJ45ciYEpSV7JrcPWD/HKwUcdtVXvsOpbwSqe8VR6jVkMLNJrl1/zS99aH8fHTnMacaBtRnvfptNXQqqPBr3XrzeL1+puGDCzGJgjJQccNdVWnXhJ9Y90xc/0Wf5qjPqKx1dy5NdYYTRnpq/UI1+x6N1YxMhTqTHVwawetspJ1auO2qp7jDGRq1jHka/1C6N+jeGnDtIxXY3R+pR/FGO8yDQm5cBhnxlp0Ufo3DAqa9zuhmE+sxiYIyWHm0qtr/7SK4ZvpmsN1clVuRIHD1ZtdJXgkKMYfnCrkjwkeas2uJKeS8z9I3t0oCrv0KlREp/KmX8rRm2vp3lgXGoOOhjsTnrtwpCHHK1PmlEaDRxZlW0z0uTVz4w0J/oXEf3g+27r8i7XPzpwv9t++vXO1iXNKM3I+bJlpxmd+Eev73IYb5FoFH+X658duqNr/w7+0bqkEaUR3cL/NKMLNSMO907esvln5ej8fAyNue7YV7JHB+8rzfGRc8l6pOEczbc0oxOb0dGblXo5AMKBcOBdOZBmlGb0x4fS70r2XFcO8nDgdTlw6Wb08fH3j3p0BCM2inc5+N71LYh3vS72LfJ1D5rsTfZmiwPt3xlp0it/m46Go/MtfeR3XGdf/cD+8fHxQx9+jVe/Pr+e2DnkwoH34MDnK6P6I9fRhr5yMxrN+d2aUX3QP7pW91cjwkdTwi6ZZvQeN67uafTs6TtwoG1GL/8LDP+8PTdqOiP/1obNDmr/o0Bq8YeAGl+JgZlJvm02w2hMG1H5u2ZU/tl1ar3oOeTCgXDgURz4fJvOXxntbUY1Wf0ZINXPvJCu6eBDduPX/Lo5jg5pGo7WwkcTIoa/7FkM/GguW42oy9NmhI5kvJKj61RM9BxC4UA48EgOtK+MdAKrb9Pp4a661jpaHzWckZ/xu4O8YqNDmqbisnK0+VAfOYuB6eay1Ygqt8uj8SALpzpjjq6TeGQOoXAgHHg0B75lMxot8uiQnjWVW2OjOeBfaUhgkdV4vPm4XdjRdVInMgdROBAOPJoD7bfp9r5Np6+EVD/7YkavgEb+rfmMDulqOKOmM/LXWLPY1ly+8r/+19cVbGG8GXWNqHCj61wdJ7gcVOFAOHA0Bz5fGXnRvc3I88+2aTYqdUz86lvRZ4c0DUll1Zw1nFlsZT5g6lUS+pakISE7/Ow6O3x8OXjCgXDgbA60zUgHXf3MSHOurL/7Qf3u13dl7mXuOfC/MwfSjOzngN79sH736/vON3OuPc3syhxIM7JmVJv5rgf2u17XlW/AzD0NJBz44kCaUdOMQo4cEOFAOBAOPJYDaUZpRstfjsjN+dibM+ud9f5OHEgzSjNKMwoHwoFw4OkcaP/OSLvxd/s2nV77EfqtXzM/YuzUyDPrcCAcuAoH2t+m08mnGd1H5jSj+9ZPuRg9axkOvC8H2ma0949e9VcXVD+LODqG6meNpw0FvSTjqQ+/+7A9p7MVi16ysGqjU2NL6h/s6h/komucWrMYmPqWXr6p976HBPscmT0+kwOfnxlV89FB9jajytWmoLrWPVLXMVQ/cgxqceh7Q6g4MceO7JFf66DfMl7Vr/XwNaGpMH5JfDQhYvjBuA0OmWaUQwouRIYLt3KgbUZabPVtOj38VNdaR+o6hupHjkEtmgO2SmIuweDHRrpfbdXBIz3mduFqPXxNaDguC6/NhnGQsxiYyBxA4UA4cC8H0owWvkXTHfgs/CxWmFHc/WqrzjhIj7kNzuWsqdwa8zFi50AKB8KBWznQfptu79t0+ixc9VsntZWnY6i+lXdrfHbgEyvZ1SfuMferrfqePMeqXQ1n1HRG/sqfxaift+lyAMGFyHDhVg4c0oxuHfwqebPmUNdAXKVe24ofjNbTGuiK28KSg6Qhqfys8VffSLdi1E0zygEEFyLDhVs5kD96XXib7tbF/S55aUY5gL4L13Od53E9zSjNqH17cfWmSyM67+Zc3YPgsgfvwIE0ozSju5rRO9wEuYYc5uHA8zmQZpRmlGYUDoQD4cDTOZBmFBI+nYR5Vvr8Z6XZg+zBszmQZrSjGfEttGdv2tHjv+t1Hb1OR9b7+Pj4UY8ja6ZWGsqVOZBmJM2oDuXZZr7roX3Pdd2TO1vrq8e2Gk2aURrH1Tl+9PzTjHY0o6MX/1Xq3dNQ7sl91PV//PX4VyBbzehR155x0vSuwoG2Gb36LzDUAVgLzEGIjU8X32OjHPWjUwe7JD7G0pjq4NTn+WCOlKPx8DOW2ugqwZVUf+mdDwx5aqOT2+WTN4ppDdc1d6RXQ+qaEk2DVyrYn/Owt9E8NspRPzrzwi6Jj7E0pjo49Xl+YfI1+zQeuHJFeUgzqgvXn+VR/YxF4TCith9y+Et6zO0RVv3omkttfCVVJ04uEgx2rZWvFwenSvDIPu/XHMAhdX7lU1v1rRj1kJ7r/opv1RzV0DzFuM6YW5L1VBwHPD495FWvuNqzPMdSW6XWAo9Pa6tP88lRX5pRmpHy4Wp624z0Il7xV7s54HSe6B5TW/XCb9nURM7wGkMv2T2oV7JrKhof6V2ej6W5xPCprXrF1UZHko/c69f65CK9Jn6Vmo/+K+/r1U/XdBzz07ZXKPhL0gjwqa36FpZ8lbN8jaGX7B5aM3qa0ZU5kGa04zOjOhR1s9XudPVp3pbOYapyK0fjNa4+KoYNTm3VO6z6VrCKZzyVXmMWA4v02uXX/JnOeiqGw1596B5TW/XCb9nURM7wGkNHkh+ZxvNuHGib0VU+M+o2Qw8nPcAKq7EV2+vP8jWGXhLdaz3C1vFV59qZ2yzm81zFOk7rECupfp+X2uSoD73k1qNrRJ/5i6+MqhloQ1C9q+Nxn5/H1e708qnf65Wdt+m2edCtW3yvsW6X/NXu7hBTQnFwIYl5XmeTozH1oVdNx3TjgFcJ7mipY6DrGPhUVlxtdPKwVRJDdjF8YFwSVwlGfa4XBh86eSNZjWgYmzSjz/r29hh1vDF0Ng1EY+pDZ5yu9koueWlGr3Gosh+R+/ajfWWki7j6mZHmRN+3CVmvrNcRHEgzCo+O4NGzaqQZLbzF86zNybg5XFY5kEYUrqxy5VVxaUZpRsO3sF6VtJlXDt5w4P04kGaUZpRmFA6EA+HA0zmQZhQSPp2EeZb7fs9ys6fZ070cSDP6pxnVN7RGi8e3t2aYUe7If2St0Ridf/rNssm3zqpWfS7R1dzrYz335r0bnm/T6TfmVq7R89xeqXEmZvQ1+jPHfOfaR913r75GaUYLzYhNPLKBHFmL+a3IW5vRkTfEPc3ontyV9XkUZm8DYl6zvFmM/LOl8kv1lXG1qa5eCznU9zziSMUp1nXw6q9ct6mH1LwOq3HNQS/Z5R15/+lYr6S3f2ekE/wuX+1eaQ4rGF27mX5krdk4HpsdELPYkTfDPQ3lnlxfi7Ps2ToyZnfgEJvJWd4sNqt5ZEyvXfWtMXzubo/yC6fYkV75HnObMdTf5YFzOcvzOpqreaor5sj7T+u+kt42oyv8AgOHUneoa0zjI39tyCzGhmktfFu5o7paC4zWPEufHRCj2OxGYO5I5j2ziakkr6T6S+98YMhTG53cLp+8UUxruK65I73WslvPOmz8Maqhfs/pDq3OVzU0V2t6DBwYbCT+meSaR9ff5Vb9PX7F+tyohVRs6fhHeYohl5wu1mHwKV5raHwVU7jRfVj+UczHemX7kGZUF6i/PK36GRfP4UDt7tDRGPG9edRAUge7ZFcTnMc8r8tXTP9jqL//GCg3/1Ye8Q6/FRsRfev6WIeqr1jVt2LMDem57mdMxanu45GPBIt0fPnBbsnZgTw7nGZ1Z3mzGDUVo3rF1VadXJcdPz/rDBox+Z43Gmvkp87nWP80MrAuFbuKrxr60BrUV5/WHflHeZo7wxRudB++TTPyxXN79W06bUCqe70jbD8Q1FadsfAh3V/2LNbhV3xekxzGm8UL4zet5s/0Wd4Zzaiuw6/FfWqr7mtBDOnXudev9clFUhu7k5qP/ivv9ycG+FWOGtLWwaM1VJ/ljWLl1wf1HK92hycP2fEMfrkkp6Tn6biKG/k7DFiXii3d424rhlwwXazD4FO81tA4mFkc/KgZEb+6POwLDEUwFkN1fEfKOjS0ntqqg8GHdH/Zs1iHX/F5TXJ0vBlG8egcbiqJnSW3boK6Bn3UPLCZk9qqd1j1rWAVz3gqvcYsBhbptcuv+TOdPeowK4fP3ryupvvULl0f3XjlAzOK46cBfeb88+pIfeBc6pw0NvKPMDrPUS5+ZNXSPOzZGBpD13r4SuJHagydGBK/y6370PFXs9tmdIXPjHSh9YDQQ1thKVkAAA+ASURBVKQwaiuOGHVmsRGGGprr42mMOuRhjzDEj5TTA3Lw9srqTTC79tWYX6vmVcxt8CO/5hQGPNLzsJGaj07uTM7W+bPO4HOSWc2tvO4wU1/pbm+NR1zz8Ln0xrO1Bprv9d1WrOqKK93tGZbYrXnkI3Xs8qntY5DT4TSm+ug+LP8opvmvrh/2mdEjL9QPlc7mMNGY6jVftRWvfnB74roWo7xuDM07S58dEKPYiOh+bd01OWZrPR3vNT2fdSIP2yVxlWDU53ph8KGTN5J+KHc4Pai6+MjX5XHQqdR89Wu++2cxrTfT4ZDLWU7FfC5beOLdnDWmdfGXvCdPa3Z1iOt4jEnM8xSrMfWP7sO3aUZ6sZ2++plRlxvf+/wV9uhGyB5fd4+7Q6/zZY+fv8ez+y/NKD+j88dbPu98085uhne+7ne+tq7xdL53XoOrXNvo/nuXRlT70H5mpBuUV0bPf1ak+/FMfXRDPHNO7zJ2NYHR48xr9DHPHOuW2j4/tW+pd8Wc73LfpRnlFd63eoV3xcMoc84Twu/AgTSjNKM0o3AgHAgHns6BSzejj4+/f9Sje9ZAbBTvcvC9ysti/RYXc4u8/Vnyyrfcsr63r2/WLmt3DwfeshnRiG5ZmEc2omo2szmmGR17cx/djH58fPzgofvovrKJE0PiL4kPSaxsdJUjv2OoN8J3cce6rWN0OjVnsa4meRpTH7rWxac5xGcxMC41x2tu2V4L22tqHWKKVZ048pYYOSV1bPUTYxzkCIN/VA8/dVRqLv7274wAlrziFxjepRnpPpypH31InznXe2ofeZ3caN18uLmIKVb1iqutusbc39XF59Jzt2zyC6dY1cGMJFik4jof8VFs5K+8W2OM2UmvqbbqW+Ov1KaG1lWdGqu+EV7zVQePnMUKQxypPmogwSDxq9RY24xe/hcY/nl7btR0Rn5dhE4fvSriFQyvVLCrhupuK15x7sdmTtiaQ22Nqd7lej6YTtZBPTqsZ99g0ljpWvvRMR2700fX12G3fHoTObZiGh/p5BFHdv5RDOxIzvI8pjUqRlx1xYx0zVMMfvWhPzrGuJ30uaiteuW63dVTX4cvn/pVJ3fVN8JrvurgkbNYYYgj8amNb6Wm5rVv0+1tRjWo/h6d6kzoDNk1HXzIbtyaXzfHWTPSg32k11gec1vnozH1o3u8bHyu+9ijGvg7OWtI4LXh0GyIqdyKKbZ06iI9rpguhm+0t5/5zf9kyzWrpBZyVLNuJL2ZwONzWXF8YNXnMbVV1xyt0+mzPI9pfsWIo2MrrtMVN9I9T3FdrOL6UAx+9aHPYmBcVo761EZ3qfiZTp5i8LnsMO6rHH0Qp1ZnewxMSa2F7nFsraM6dRRHLaTG0NtXRgRLrr5Np4e76lrraH3UcEZ+xh8dLrNmRK5LmgN+tVWv+JZNDeQMrzH0kt3jV73bfmWaxoL8Wc9uWvwlt5oKtVSSh0/rbcXAjvb2M79pRuTN5Kxm5Y1uRPzIDqs+blSkzkl9qium08EiFVM+tVUnphJdca4XRnEjvctzH7bWwNfJGW4W81qF1YfGqeNSMTOdPMXgc9lhtnzEq5Y+8JdkHPWhb8U07jp2SfQ9433LZsTCu3yHZuTXtMfm1YHmeFNRW3XNKf3WmNapGqM6s5jW2NK5ZpVbOV18dPOt3JjkIqu+5+FT2c3DfVrznlg3H69XNjiXxLqce2Je79br1Tpag+sgTswl8S1JnuLUV7ra4FZ9Hd5rdrW6PHxI6rjUeOle323wjm2b0d636fSVkOo66Bn66BXQyL81h3ubEa9KGIdXLKs2OOQsX2PoJdGpsSo5jB2vzcAbgNuae2tMa5Su4++JOfaz1uRzsQ6/x6c3nOtua93VWOWARWqdkT7DVqyLd/7O1405qsf8u/hKrBur843qM0aX4z6voXbp2Kp7jZFNrsbVN6qpGHI73yimWNXBI/fGFI+O3FvzsM+MGPgRkmajUsfFr74V/ZZmVHVpAkjG8sbQ2eRoTH3ojNPVXsklr5PViDo/PhoLEn9JfMhbY5V/Tz0dd6SPGu4IP/PXDacPxerNCIY4NhJ/Sc3DVl+Xo/mdrvmjOHXBYiu+82kcnRrYJdVHHaTj8M9yZrGVeorpdK1fceY007s66qOGSuI6HnFiSMWoDzxSY+glNY6uEqz60DWGjiyM6mq7n3qKUV/bjChScvUzI825sj5qSFe+psz92L9XynpmPcOB4zmQZmQ/A5JmdDzJcuNmTcOBcGCLA2lG1oxqwdKQcuNs3TivEte3OVw/Y44+htpnjHdGTZ2z67eO53XUvrXmd8tLM2qa0XcjQa43zTccCAeezYE0ozSjnx9APpuMGT8HYjjwfTmQZpRmlGYUDoQD4cDTOZBmdDIJb/2a+SOfIer72+iMj63SY2qXXlh8Kt1PzRlGY9G/77Pm7P37732aUZrRsHnoAeCNpGLeTMAgNR88PjBI92NHvv8hlD3OHhcH2mb06r/AoL/yoPpZpNZXN+glGU99+N2H7TmdrVj0koVVG50at0pvCF2dDlM+9aO7v+oRozY20v3YnaxvO+YbjznAOm7Ed11eHNKMigDaFFQ/ixw6hupnjMeh7w2hxiLGuFv2Co4at4xX9Ws99qwJzUMl80R60yg/PpcaG+WT41j1k+syzei6B47vZezsJRxomxHBkqu/wKCHn+pa60hdx1D9yDGoRXPAVknMJRj82Ej3q606eKTH3C5crUe3JvwcDpKaKw2gw+BzWXXLp350j2HvmQvYyBxk4cD7cODzh1LrbbnRpqYZ/fnqR9eqawYrcc9TW3WtVbrH3Hb8iq2NYoTvMOorXe2qg42kNliXmgM28n0Om+xl9nLGgfaVUT4z+p00swOfWMluoYl7zP1qq74nz7GrtjeLLq/DqI/GornEkcTcLj8+JNhO5m263/nZrVF8WaOrceCQZnS1i94731lzqFrEVeoYK34wWk9roCtuC0vOlqwG4A9y3K/NwnW1K59caiEdBxZJHpI8ZJpRDlq4EPk+XGibkW7w6tt0mhP9fQjyinuZZhR+vSIvM6f7eJlmdPLfGYWg9xHU1y+N6Nj19PWNnfV9FgfSjNKM2s+6nkXIjJvDMBz4nhxIM0ozSjMKB8KBcODpHEgzCgmfTsLv8Ey43l78DteZa/yer2qO2Pc0ozSjHJIncyCNKAf0EYf1u9dIMzr5IDqTQP5LCmeOtbc2c0N2+V2s83W5j/bdOq8jG9HHX3//qMejr/3VxjtyTbeu7dZ936q7Fa9xtzAVZ36r+JWaW5jR+t/Lz89fYJgN/m5f7fa/05ld+6vHIOIrz3M2xy7W+V7h+kbzGvmZ8+jGJb5H3nOz35O7Z45nY49cz5W5bu3vSo1bMDXunry9+D21O2y3D/dw7DO3G0h9aUav+xbDs24U5ceWvneOe/Fb4x8V7+aFr2Q3TnfDdrhV3903+xu8qjp6TVfX/tG4EadG89iLH9VZ9Xf7cDc/u8Ff/eeA9NUNekmuRX343YftOZ2tWPSShVUbnRpbUg8zJZP7V2Oz8WY1P6/jr48/XvJ3OeqbjUcMPPZoLOLgVRKbSfBenxziSPyOrzgxsCo1prn4VXY3LHFuXKT7OxusSnAl1V965wNDntro5Hb55I1iWsN1zb1FH62n7tnXvMZ76OPq3mod9XsOYyiG3M6n+bP4LKY1Op3xPTaqOfKT7/Guvu+H73fHo1/1f3/L+TOXoMq9zahy9VeiVde6R+kc+t4Qqj4xxtqyV3DUuGW8qt/9ijabzfgqPYaNBOs2/k46Vm3VNVf9I13xna55Hu9i7nPba2CDK1k+bNc7mxoa03z1K3bmr5jfrORy02Kr9JjaqleO2qprPfRRHH/JrZpgqamSGLKrpfiZ3t0vhR+v56/m8zXuL7vbR8aGK9id7DDuU7t0t6mrfvd5zO3Cj9alYh2+fOpXW3XP1xyPlc3D90P3/ivvV8NZiR32mZE2INWZ+JGS5tDVJOYSLH5spPvVVh080mNuF64jEWRAUq+k+7CRYN3G30nHqq265qp/pCu+0zXP413MfW57DewZjphLz/V42Y7BRpKDrdJvVmLcmEj8Jd2ntuqOJYbUmo7V2AivOWCQ5GN3UvPRyduS3f1SOeP1/LVPX2P9snUPu9hs/xxfdufTMVR3LGO5dFxnl2+0LiO8z0VxHlNbdc0pXR++H/AAjNqqf9X81ah+2rP/PqJAq58ZaQNSnYkdKbsDn/qzWGFGcferrTrjID3mNriRrI3XR+GwycFGuh97Jme5HqOO+kc62JHUPMd0Mfe57TWwZ7g9MbDIrfqOA1/Sb1aNlc4NilQf2NWY4zWvq+t4bJVeYxYDiyys65p/iz5az9oDrae26l9z+h1L3mgfPZ8a4D0+sz3G2NSc2Rrr9K72zOcxtUvXRzde+Xw/dL8rrrbqHvtpd81o79t02nxUr0HOeMwOfGIlu7GJe8z9aqu+J8+xM5vNL4zqao/8s7rEZrke63IUozrYkZxhu5j73L5nnKrl+V4fGwne7S1/xf1mJcel3qiqF05t1T02qznDek2tQ6yk+rt6igWPD7zWqLVZXR/yRvjaGzC+Txr7mscvLDlIx47wHW5UQ7Glq02OjzPDaY7qXV2vo7bj1VZdx3Dd90P3u7Bqq+6xn7YPUPbeZtTVONM3aw41LnGVOp8VPxitpzXQFbeFJecTZ88+lAClj2xiKrXuSFc8umLxIXWOM11rqE4dlcTVh74SA9NJr+MY4irBqA+9YugqZzmFI470G/ar7tdbFNygJcHP4opHJw9bJTFkF8MHxiVxlWDU53ph8KGTV7LWpVsbxbg+w+se6T6oXvXUHuWAG8Xd7zV13hpbrQtO64z02VyooxjqdPPSmOY4FpzvB/utEmxJ9aMT/7QxRnL1bbpRfvznvDrcu66Qa29e8Pftn9+wWc+v9ax1uWVtbsk5es27w7nzHT3uo+p11+K+M/Yhv8Bw0luJjyLO6jhFJifUam5waUhHcuDWRlRzOOMQ3Htt3X3U+fbWfRV8dy3uO2Mf0ozepBkVWUaPIjmxowhPvU4eNYbW6cbBp7hX1c+4eV/1Ws+e1yusJdxDnn3Nj67PdSF1/LPWP83oTZqRkiX6fa9ksn5Zv3Dg8RxIM0oz+u3D89yEj78Js+ZZ83DgPz/SjNKM0ozCgXAgHHg6Bw5pRvUe4lnvI+YZQ541hgPhQDjw/hw47OeAiixpSO9PmBwK2eNwIBw4gwOHvDJiYmlGISlciAwXwoFwYA8H2mZ06y8wpBmFfHvIF2z4Eg6EA3Dg/wGKH7QJXa1b+AAAAABJRU5ErkJggg==;" vertex="1" parent="1">
          <mxGeometry x="458" y="400" width="419" height="220" as="geometry" />
        </mxCell>
        <mxCell id="9vh1Hj67I27Qi9RlaAKU-8" style="edgeStyle=orthogonalEdgeStyle;rounded=1;orthogonalLoop=1;jettySize=auto;html=1;exitX=0.29;exitY=1;exitDx=0;exitDy=0;exitPerimeter=0;shadow=1;strokeColor=#CC0000;" edge="1" parent="1" source="9vh1Hj67I27Qi9RlaAKU-9" target="9vh1Hj67I27Qi9RlaAKU-10">
          <mxGeometry relative="1" as="geometry">
            <Array as="points">
              <mxPoint x="249" y="710" />
            </Array>
          </mxGeometry>
        </mxCell>
        <mxCell id="9vh1Hj67I27Qi9RlaAKU-9" value="" style="shape=image;verticalLabelPosition=bottom;labelBackgroundColor=#ffffff;verticalAlign=top;aspect=fixed;imageAspect=0;image=data:image/png,iVBORw0KGgoAAAANSUhEUgAAATMAAAAgCAYAAAB+bZ/fAAAIOUlEQVR4Ae2dzXLcOAyE57jHPHMqT7JVOe5T7QPkuMfZgief3e4AoKTh/NjmQdUAugGKFAnL8Uzl9Ou/X+dZ18+/f77WUntWfa+jY6jtuln+6fuPl/kFclEbLvPRgqohppjxxAJV6za6Kg5f4en76RxXxp9Op7NeqtF42HBb4+g0L2ziWtPjzsFTaytunbvW87EzP2Jb411t5dxmjAxDq/FRrvNb/WrfVPndelc5ET/L/lLdSZ0ZtjYVtWfUzmroGGpn2mtjNAjqhJ/ZEXPOffJcq3FszUVPLFBteHJBNPgdZpuMw5DlOae+2pEbvtZwH67Lyziv4z51R5jN3XO0ttqhc19zMy6LkdNxaMDQoncbTSAaj2lcbXRxtrLzxXoFolWs8kJDruqxu7zVzCa8gXYNwTn11b48xLcmmPk8ULDLVw47MLve6l3evrrN5Fy2wV/rWYOKOHqw0jpf6Yhr7S5W1v395unze1creTuNenqhJ8Z9+bjwIHmg64lTT/3O1jqVXdVUfaWpmkusY3dfVV6XE1yXt5rZF2tmo83S8dlB9w2v+RlHDEQ/8isd8UCvkcUyjdao7C1z99r4ILVHfnbf5I441blWx1XbddTYokH7DHiXZhbdlMmqTWw26hhqzx6Herz54Csqx1sRvHIRG/nkgZ1eOexAbGpsxewwR25seN/01HROfc8Z+VoT21HrB+c+Mc8b+d3cye3G6uaW5Y3u0+txDxmqtrKr8VRfabIxX7TJW2yl9Xi13q5z/y7NzAf9bP6oQdBEQObveZlPjnIaw46arsnGQa+IrsLYXBUX8dj0eqlW43o41KbGkTzNoY6OCa8xbLgOr5k795PV5x5ANPiKWzg0jlGHWGbrONiZPmKaj6bCow3pZZydjTCamF96X9P/AKDFlz3vL8VrLddarj3Q74HVzCb8W9raZP0mW+uz1ucee2A1s9XMXn89uceGW2Mcb2z8epjhWtdf5y/XzP7593xe1+PX4Ntf385xrUN4vLmttXu/dquZreb2kOa+mtn7g7ga0/XrsZrZgWbGa/7MNzxqBs6se89azEHHJAbCeTP7cXr/QeKjh5u/3h7N/+h51/x18ejcszUnFpjVnfW8tfZqZhObmR9YDu4Ij+aN6t6b7+bhnDazmRubQ6SbfKt9Te7WMW6p04+XqH3LMaN2t25VM4u8mc/95T5uPdFnq3/LA+4HdutYR/O21n8Gnc9xNbPrf63ys6UNTG3X3dP/0M2MLg2ycEyKOH7w2BlH/iyMQ5Udbo1z8ED0+GAVdx5dhZWeuCI1iIWPHQjfoeo1R23qap0uTznNwYbHp5l1P511P7BH2C+V7zmq01x0WUw55dXWuujB0HERA70GcZC8I0gDC8TWOowR6PGRT67rsrhr1He7ev4RrzivgT/110xfpBiEmE+aOBr3uUEwvq7kX1nioSmiBz3PDyyHq4s75wdTa7gWrkJqgejcj7jGsAOdo8YWpI7X0HhWJ+OzGLnOjZqZ7xeeZ6Bz6qvtWue0pmuVIy/QdXDo3SeueapxW/Wd7fsaLWcBv8IYF07tiLmPruL26rVe1bCeopnFxPyqFoFJdYuBpnp48BV6XhwqPWCVzeED0QVmsS6uuZmd1RvFMj6rncXIVQwdvtvUgFeEq3LgycHf2szYS/p8Paa+2pGjPjaoNV2rXKXXHDQg+fgZaj42eSP0fX3Jv3ylibcykFp+Dx6/1Pjze71VnuZjO0aux9Svmplqtto3fzPjRrpJdRz5GfJTSDHTaYxDFagH0H0OHXp8zdFYF3ed+1vHUJ3aXq/zPS/zIz/iWifTjTRd/qiZ8cyyg0TMNeF3nOu3aLOa1NnLMR7o+RHX2ntsbVzZefDalV/FuRfnmQO8Y6ZXzVM3s+rmq/hoMXTiM2wOKgdxdEid9/zuwCrX2VvHUJ3aXW3nPC/zIyfimpvpRpouf2sz45nH/mEPqc3+2cJRC+zqoPH6GleO8ZWv6mvcbc3f86uWNrPLfb3/dzO9Px2T8eBBj19qvj0DeOLqq+31lAu7amZ75k7NqW9mUZSFUiTOoI6jCbv+Gp+DykH0Q6o8nGs9nh1acpSrbOo5T1wRDTH8PUiuIvlZLOPQBYetOMoZNTPdP9j63IkpBq8+Nnn4inBgxhFD4wiviEZjboeGGDZ5gXsPtL6RqU1NxgKJgxHHVkQPwuErbuHQBD51M9MbfUabQ7bwsV9popl1G/oZ988972lvM7vnvc0Yq2pkUfvI3Ke/mc2Y5C1rrCb22CbG+q9m9vbxjWy/HznMWZ1njlXN7OjcVzM78A0ADuQW1F+93N6Sv1fjY6i/t9Yt9drM4sBVG/uZD+O6t74hd+tzi+f95ZpZt8CLO74519qttXv0HljNTD6t/eiHscZfDWHtgeN74CbN7HT6cY4rezBwFZ/lELvFqym1H4mfdV6PXNM19vGm8FHX7q7NjEZ2ZLE++oHv/iOGWI+PPr8jz3TlfL2Gc8tnfpNmVt3wZ2tm/kHFat4R1/8ei8am+tXM1sHW/bDs/fthajOjWYH+QKq469zvDrp+YC9scrGV38Kh6ZAPJHYa5bSRRTxrZhHv5qn1lr1/o681+/xrNrWZsWGypkUMRKuYfXk2+OqQ07C0BjGaGBzx8DsOfXUvo0aW5WkzwwYZL7Cap2qW/fkP5XrGx57x3ZpZPKCukQWfNYKIV4ecpuT4Mpa8pYWvlzY2jaud3cuokUV+lkfjAkOnNuNW84Rf+P45rvVY66F74Kmamd6Y2tUh75rSUU7HzewtDc3zonF583I/cqp5er3lr0O89sCfe+B/z7SKuVywNlwAAAAASUVORK5CYII=;" vertex="1" parent="1">
          <mxGeometry x="160" y="630" width="307" height="32" as="geometry" />
        </mxCell>
        <mxCell id="9vh1Hj67I27Qi9RlaAKU-10" value="" style="shape=image;verticalLabelPosition=bottom;labelBackgroundColor=#ffffff;verticalAlign=top;aspect=fixed;imageAspect=0;image=data:image/png,iVBORw0KGgoAAAANSUhEUgAAAeEAAAIOCAYAAACPsLXEAAAgAElEQVR4Ae2dTZLkOM608+xtdZIxmyvNdo7wLr9lfoasebq90QBFKaSQQvJFGP4cIEU6iYjMqKyv//t///ftl9fAHDAHzAFzwBx4Pwe+vOjvX3SvudfcHDAHzAFzIDjgJuyfBPgnIeaAOWAOmAMnccBN+KSF97tgvws2B8wBc8AccBN2E/Y7YHPAHDAHzIGTOOAmfNLC+x2w3wGbA+aAOWAOuAm7CfsdsDlgDpgD5sBJHHATPmnh/Q7Y74DNAXPAHDAHTmvCX1+/vuNVkZBYF69y8P1qahJ/l/z649d3vN413h3G+fr6+o7X1md5JXdmzKPrV3O4Cp+rudnnBmIOvM6ByzVhGvCWzX3nhbXUYN2E15PTTbhes3fyesu5c069b14Xr8sMB05rwt3k7tKEu+fb2//1x/ZPjnvP5ex6R39SPbp+t35uwr7MO27Y//nc+Pr3v/7954//VD9qc2myyDxO58+4bHcXFZ9Y+WSKHfmqZ1vxist+bOaDrTnU1pjqVW7OB1PJaMRVM+aTJTLn4kfmeGWDRWYMfiTxsEPHj935yMtxzVuKaQ3Vqxo5zjyzH7uL49cxVI98tRWvfsZBdvwmbvn5l7H38Jl7+PNJWJuv6keSomq2+JDV+DG/ao7dJUWzo5Y2N9UjrvYoL2OprVJrgcentdWn+eRkX2dXjZgLnhy95KuYxsnJssoDU+XjG+Ut5VMjcFpH/cSoNZLkZVnlgNH64VO/xrQGGCQxtUPPNjiVHb8VY/2Zl7j3/bP3/VJNOMg0asAR39KEO5LSAImrrfrPvNKXrHKcGsgcV7vSw1e9/qr3+9Nu1Wwz5k87fclp6bLXODWyzBi1Q69eUUNxuSZ2hRn5cizb1M0SXJbgwq+v7MdWqXjVAxN2xmKPYmBCugl/9kWre2nde6kc+LgmrJNXvbuktOEpPvQcU1v1JWyuu4TX2ujIqtaMr2rOows+x37mnJpFNW7OU1v1nDuKga0wI1+OZZu6WYILyQsMscomhgQTsvIRzzG1VR/V6fjNGJa+2M2Bz+TA238nDFG6T7ydn7xOdpfUqLlpLPRs61gaC3+2FVvFFV/p4VN/rjeyqwb8M4fUVPXCD31kd+NpTh4j19QaOU9j6BUm11Rb8eqnXicVq3rgRzVzTOvnOjmGnXFaM49PTsiO34qx/pmXsPft2fv29m9H02RVKgnxq29G7y6ppcZG80MyVs6rbHI0pj70qJkx1TjgVYLrZDTgNjZowpFDQ0B2ddQPFqmxqmbg8GcsNrVUEiN3KQZO80Y686rydKwlnI6R83KuxslTn+KJIzt+E7d89kXu/f/c/X97Ez6SLL6ojifiqFEcubd3rT2znub18by+K7/8XNfnjpuw/2xl+0m6OsAzTaPKs6++DGbW0024XjtzyutyBw7cqgnHhvjCeu1gRlPoXrG+M03j7IPRzf+Kc1+ak/n8Gp/P5qLH9/4tceB2TVgf+Pv76/upL10H674IzAFzwBy4JgfchG/aqH3grnngvC/eF3PAHFAOuAkvNGF+tPmuT9R7jaebbN2H3hwwB8yBa3LATXhjE97aLJfyluKzbwaOOnAxP62d7YjxDOCyXWHAVpL8aiytpXHVwVBb66F3Mfy5Bn7GQeJXyRgqNd7pikcHi61SY+ghA4OteHRiYPHnPMWBRWqO5uUc29dsBN6X8/bFTXihCXdNj0uni3f+rXldvc5/1KFi/tTPFy42cglHvJO5TsZ18exXW/WleopVnTx8SPwqRzHFdfoov4qFT/2dnsdTXMTUVp287Ms2OMvzLniv/fXX/u1/MUv/8wXVjyBLXApVk1J/6PoCr74RHhx5nQSXJfhZf4WrfEesZ9RkrKwzXsSJ4UOOYmCyJCf7w14TU6zquW4Vw4fUHHxIjaGPYmBGcpRfxcKHX/UYA38eb8lfxbMv2zpGfMvb3/S+fkPQPbP+nv36+SSszVD1ozZBx1B97/HiUqDJqRz5cyzs7ItanV/HqfSlvBxXu9LVp/PStYw1zuvMn7pUqTmhl3nFBR9zILfTI85cFUPeSJKXMaM65KgkX33oGkNHBiZ0JH71VTFwjKGS2Ixcqp1rME740amhNjq4XEf95Csm+7KtWDfh91zouubWP2PNH9OE44KgKWY9bH2B06amvpE/47LNONmPneNqVzq+LPUAVs1U451e5cU4gVdZ6Yqhvs4R3xrJOORkG3/IHFNbdc2p8tRX5eFD5nqaX8VmfGtrg1epejUm8RzDj9R49mVbsdY/oyF4n96/T7dvwnExxCuaHHq2uwaoOWCQ1MKelUt5Oa52patP57B0mPQTMPpSTsRjPMUxPjFsleDJReJfIzVX9Vwjx9RWfSkv4uCRmoMPqTH0UQzMSI7yq1j2hY0Pmcdb8lfx7Mt2HsP2+y94r/n11/zWvxOOphQXQ7yyPmNXmPCN/MQ7qfOpMDmudqXjC6n1jjh8jKW11Re6xkLHhySebfxLUvNCV1tzs19t1TUn9BxTW3Xy8CHxqxzFFNfpo/wcC3vkyzEdM8fUVp2c7Ms2uJD+cfT1m4Hul/X37dftvx0dF0O8okGpTsPCp1Kx2U9exqh/Sa9qqg9dx5jRyQt5xCGivtZWXzUu8RzDr7UqHRwyY/AjiYeNHlJtsCrBqk9zluI5T3NHMeqOpNYC19XEDy6k+tBVglVf6PiRM3GwWboJv+9Sz2tv+9prf/smvNQQ7xr3wbv2wXva/rgJm49P4/zs87oJb/x3wldv3rMEMM6X49EccAM2x47m2CfXdxPesQnnH9ep/e6m/Smk1DXK+qc8w9Z55udVe2tN57nhmQOfxYFbN2GT8bPI6P3yfpkD5sDTOOAm/P9M+qeR3s9rzpsD5sBVOHCpJvz19etbX+9cJP/eyofynXzzWOabOWAOBAcu1YQhJY0Y+2gZDfjoMVzfB84cMAfMAXMgc8BN+H9/SCAvjG0fFnPAHDAHzIGjOfD2v5gVD8QnXWR+yCV/FceHzDVHtj8J+6CN+OGY+WEOmANHceDnk7D+DzuqHzFobpLZjjFnfcwv47MduOo/IyDfTdgHDC5YmgvmgDnwTg7s2oT/89//fOdXfhgaZJaKI1b5ZmIVpmrC/jKWD5tyzLr5YA6YA+/mwO5NeOkBqgaZc0YYYsjIVT3XmrH9SdgHb4Ynxpgn5oA5sDcHdv2dcHwKXpogDTNkhwXTxcOvGPRRzVEtN2EfrBE/HDM/zAFz4CgO7Prt6JkmHA+iTRN95F+KzcQD073chPu16dbMfq+ZOWAOmAOvc+CUJny1jXMTfp1IV9tTz8d7ag6YA5/AATdh/zvh9icEn0Bgz9EXrTlgDnwyB9yE//dj6vg07E/EPsyffJg9d/PXHPg8Dty6Cb/7vw+80ng+jJ93GL1n3jNz4HkccBPe8f8TdhN+3gHypek9NwfMgVc44Ca80IT5j9bf1WD3Gu8VUjjXl4o5YA6YA+/hgJvwxia8tVku5S3FZ98MHHmAvr++vuNVjUEMWWHse8/h9jp7nc2B63PATXihCXdNb2uz3JrXzaPzH3X4aL7IPI763YivfwHk/bPtPTMH3suBt//FLP0PIlQ/YuOj4VVNSv00RSR4bGTnz3FwWYLLEtysv8JVviPWU2tqs8WffVUT9rfQ33vA2RtLr7s5cE0O/HwS1mao+tpNm/2LWTqG6mvHW8JHc6LJqRz5c4wGp/mhd/6My/ZSXo6rXenq03np2sQa53X++uPrO780J/QqD0xuuOFXHzqSPDfha14E7I+l98cceC8HHtOEo1nRELNOI0OC06amvpE/47JdjaGYHFe70vFlqQdp1EwVl/VRXm6ukYsPqb5c2/Z7D7rX2+ttDlyTA7dvwjQnbZzhU5smqNiRr8oFvySrMTQnx9WudPVpnaUDlz8Fh72Uo3FttPjDl/3ZBmt5zQvB++J9MQfey4Fb/044mpI2KdVzrLI738gfsdErzyFjc1ztSscXUmsdfZCq5pqbcIXxj6Pfe8CP5oHrez/Ngdc4cPtvR9OkokGpTsPCp1Kx2U9exqh/Sa9qqg9dx5jRyQt51MGg0arUsdTvJvza4dR1te61NAfuyYHbN+GlhnjX+FUPrD8J3/MiuSrfPC/z7eoccBNe+PHxpzbpKxLPDdgX4hV56TmZl2dywE14xyasPw7O+rub+Zmk8ti+1MwBc8AcmOPArZuwSTBHAq+T18kcMAfMgXM44Cb8v/9P2AQ8h4Bed6+7OWAOPJkDj2nCX1+/vuNVbTaxLl7l4Ivfc6KfKb/++PUdrzPncMbYr66/f0/tBnAGbz2meQcHHt+EacAsyBr5agNYM9ZSg/30JvzKP6vaug9b89bsm7G+bM0Bc2DEgcc04W4R7tKEu+fb27/2L2vNju8m7ItqlivGmSt34sCt/2JWbBRNFpk3r/NnXLa7T1F8YuWTKfbPXNKPi3Osy1E/OvPBDomPsTSmOjj15XwwleRPXuYYjVS/Ga6Yyq8+1bu8wGgMvdsP4pXcklPVsc9NwRwwB7Zy4OeTsP4PO6qvLXq1/0VJ5181W3xIxaN3/4lBd4HT2MjX5qZ6xNUe5WUstVVqLfD4tLb6NJ+c7OvsqhHTRMnpGubPWKmZdtjKX/m6/ej2L+bQ5TB/S1+s5oA5cDQHProJR9PPr27Bukbb+anTXeLdBU6TI19ljqmteuQs2Vp3Ca+10ENWL+rSZJH4VeZY1Rz/hv/660+HZmy2yQt/9SKO7Paj2r/AdnjqWfryNQfMgXdw4OOb8Owidc228y/V7S5xmlyVn2Nqqx65S3auP8JrDB2Z68zauQH/zDl9utVaucku2eRmHP4su/3IOLW35Gi+dV/S5oA58CoHPvp3wrM//o5F6ppt519a2O4CHzU3jYWebR1TYz/zT7/zVWwV1/xKD5/6c72RXTXgnzlMNmE+2eoYXbOtsJqH3u0H8Upuyanq2OeL2BwwB7Zy4KO/HT3ThGmyKnWx8KtvRu8u8KXGRvNDMlbOq2xyNKY+9KiZMdU44FWC62Q04DY2aMKRQ0NFah18yFEsMBoPvduPjFN7S47mW/fFaw6YA69y4PZN+NUFGuX7Er/GAdy6D1vzRpxw7Bqc8D54Hz6FA27CL/zZSl/i1zjoW/dha96nHG7P8xr89D54H0YccBN+oQnHwvoiP/eAvbr+kf9qjdEBc+xcfnj9vf5X54Cb8ItN+Oob7Pn5EjIHzAFz4LoccBN2E/7Hl5x8YK97YL033htz4F4ccBPeuQnzz3dG3yL2Idr3EPHt7ruua/WN8TXPWn2bfE2+Yl+di9aa0c86R2eNO7Mmgbk752fX4Q44N+GdmzCkuMoh3vpPsHiOK8i4cEbzuPuF9Grj+8QmzPnJcsQDYt9fX9+88K2RjLkmZ2/s3Tm/Jyf3Xvt313MTdhMeNrh3E7Iab+lCqnKO8F3hct7yXJ964cV685p97mi+is22xjr9Cvt8d85/Kic7zrziv/1fzIq/HcwCqY7vKNkdZC4VJONjI/Ej8askVkk+AWdZYffycXGE5EVtYpUNFqkYfCqrOL6Qis06uM5PvJOsf47HpaKv2TiXUZVb+bSuxqlDfBQDU8kuT/05T2PoisGH1FinxzpHLMsO3/mPbsLBo9/zfCbnf55duK/7wH6HxK8+1YnnepoL5m7/ouHnk7A2J9V56Fk58xesopaOofrsOODePR7jzkguD8XmC1xt1SNH81XPMerHOlZrSRMGl2WVx1xUzuX9/U9hckFFrurZpiEyxggLRmWFx6e11af5oRPL/spmXTTGhYJPLw/Vc3yUl7HYIas8xkGCzzb+LGdwS5gczzZz17ErDhLP3McfcpQHrmrCo7y14ym/YkzlkepVTOOqZyzPorLC4wupelcPjNbt9LWcz3UyD7INvvJnn5vw4Me3726K7x4PoszI6jCPfDmmtuoxdrbD110sW5rwzPNV440OdY6prfrv5/v774BzPM8vx9Wu9PBVL+rG+uoLv0ri+PJFoXbo1StyFUetLCvMyJdj2c71sQPHC1+Wo1pVjHpZat2KSxrv9KW8qgFHrVFedbYYv8pTfoFD5pjaqgd+yaYmcoTXGHrI6vVXvdc5Ty3kaM8rrkRezsGm5h2lPwkP3lS8suHVYR75ckzt0PW1Zl5LTbiqpWOhV7js48Bnf9g5prbqS9hXajMOsqo146vWJF8qaque649iYCvMyJdj2abuSEZOlVf5qFPFKh/4I2XXgEdjxr6O4lVsxKUcU1v1qLtk57FHeI2hI3OdWXuG81or7/uSTW7G4b+z9O+E39yE9aArsdUfhFNb9bVk3NKE144BfnTQNRZ6tqkRUmOVrdgqrvmVHj7153ojW/dMcfnyUDt0tUd5GkOvcnNNtRWvfurNSq1DTuWL2Mjfxai5t9zSgH+e4cAmnDmX+bdk5zUa4TWGHhI911qyZzmvdXTPQ1c7cNkmt8ISQ97yx9E83Kty9sfDr45D/rvHY9yRhLAqFa/+0ImpHj61c47GyB9JGnHIEe7V2NIh5yJAMl7Oq2xyNKY+9KiZMdU44FWC6+Ro3bk8kLkGfpWBCTtjsRWLToxc/LkOfnCa1+nkIBWHTyVx9aETC4lPpcb31KMB59ds/dH+djWUaxVG+aVY1SOvsjWX2upDz/laK+vkIKnbydGaxH52eT9zkl9vZKxyYSmW427Cg0+O726K7x5vRLgjY9VBqHxHzsG1x39gJF8UXq/xel1tfXyePme/3ITdhIfv/o64XKoLovIdMbZrzl1ObsJz62Q+eZ1e4cDdGnCshf9Yx+BNxStk2Ts3mq6+9q7veq9djp/QhGOO3cv7/9r+e/28fls54Ca8YxP+/v76fuprKwHvnvdUPsRz331v/XxuvHtwwE3YTXiXNw57kPGONdyEfVHfkdd+pv147SZ8sSbMjwvfdXnvNd6nHsr4HdORc99jH/fao9m57DUe63r0GjOO5X6NwWv5vrV0E/6QJrz1YlzKW4rPXtyfeGi75qD/rOPV55pdvxGu26POP6oVsaW8pfhSfeK6dt1aK8b6+y5+r/V11tpN+GJNmAssy60X49a8PP6S/YmHumsMV2vC3dpv3duted08Or9yoltrxVi/TmPwXrxvL/wXs3ZswnG5VReS+rkAkeCxkZ0/x8FlCS5LcLP+Clf5jji0+m3wSo8xs5954O/sqinwBwyypMYWGWvFmqtUf7WegZ31g9P6lQ4uS7Cz/gpX+fJ6VWsemPB3sVzD9vuag9f6PWv980k4/jA5C646vlk5+8czdAzVZ8cB9+7xGLeTcRFxoakc+XOMy0zzQ+/8GZftpbwcV7vS1afz0jWJPc37SlNUqTmh5zywEet0raEYzcn+iI0u/Vc+Cf/jGcyJP++Wbs3dhN9z2etZsX6dNXcTPuiTcDQrGmLWaWRIcNrU1DfyZ1y2qzEUk+NqVzq+LPVQ50aksZGe87R5LunEQ+oY+NUXetcQInZUE441Y+2zntcTXEhi6hv5My7bXT1wOa52pePLcs2aZ6zt6zQJ78Wxe+EmvHMT5iLSSzJ8aneXXYUZYYmNpM6nwuW42pWuPq23dFBphipncwJHnurqUz91I44fH/KoJkx9JOsVMtars1lL4tiao76RP+OyXY2hmBxXu9LVp3VYA+RozcFYHnvhe32vt77+nfCOTTguIL2QVM+xyu58I3/ERq88h4zNcbUrHV9IrXXE4dYmW+nqi/Eru/KHb9QQlj4JR+4oX9ci1og1y/qMXWHCN/IT76TOp8LkuNqVji+k1tN1GK35mvXMNW1fr6l4T9btib8d/cYmHBeUXljoI79eauDzZaeYSq/y1Ieu85jRyQt5xMHTprqkEw8Zc8FmXtkeNdGlL2ataRqjdWSvdB3RNQ9fSHKQoxiYSlZ56kOP3DU62JCsPbJb8zXrSS3LdRe91+u66+UmvHMTri68J/g+8ZB3TWHpWdY0jSfsffeMuo6jtV6znlrT+nUbi/dmfm/chN2E//HpqrtUR/5PPHSjxtA9z9qGMVqzu8d0Dbu1XrueWtP6/EXvtbruWrkJf3AT1h/9Zf3dF/ynHvKuOez1PO/eh8wDtd89F9bw6DVmHMvrNhrvTb83bsI7NmETrSea18ZrYw6YA+bAPzngJuwm/I8v0Pig/POgeE28JuaAOXAEB27fhP07Jx+cIw6Oa5pX5oA5sAcHbt+EWST/XsoHBi5YmgvmgDlwFQ64CfvH0f5xtDlgDpgD5sBJHLj9X8zi3Y4/CfudL1ywNBfMAXPgKhz4+SQcfzifCamOb1a++381mh0v5u8m7EM3y2PjzBVzwBx4Fwce04RjQf0lLR+sdx0sj2OumQPmwAwHHtOE/UnYB2LmQBhjnpgD5sA7OeDfCZ/0y/h3brLH8qViDpgD5sA1OeBvR7sJ//l9AB/Sax5S74v3xRy4Lwc+vgnHl7N4jYjqH0ffl8SjfXfM+24OmANX5sBHN+E1C+sm7IO4hi/Gmi/mgDnwDg7cvgn7G9E+SO84SB7DPDMHzIEtHLh1E373f912pfG2kME5z71ErsTdd8/FvH8u76+w927C31+7/Kf27744lsa7Ark8h8+53Jb4dOe4efo5PL3jXrkJLzRh/lP0d11Ce413R7Je5ZnYo2o+o1jgiYfM+V0Mf8a/auv3JPbgN/Pco9ZMjb3Gm13Hrz/+uWezue/C6Z6+a0yP89qbGDfhjU146wWwlLcUn7mcAuOD8bvhHbEO7FFVeylW5YQv8kaxUbzLG/nzZT3LqxGOZ8+Yzp9x2V7KW4rnep09WqeI0XyzXMqL+PfX18+rwhJDKgYfcjYWuLy3mmv9tYZ5xPq5CS804e7gbr0AtuZ18+j8R5Dl02rGWl9pzqP5jGJHPEO+qDse7eHfyvmteWvnPLO+0YB5zeADEw1UZc4jDibb4HMjzji1IyfvLXUsr9eAY08++i9mLZEqDnF1INXPQUeCx0Z2/hwHlyW4LMHN+itc5Vtamy3xPI7a1FNf6PhDHhHT+uh5HGziS3NRnOrUQXYx9YcOXiUY9aFXMXwqwSNnY9UlHTXgokr1Mw4SHDay8+c4uCzBZQlu1l/hKp+uW6XnT8DYFbby5SYZmOwLGx+SWrMx8CGrPcbfxTTf+vsa9s8nYf2fk1RfuxGz/6uRjqH62vGW8HHgOLgqR/4c49BqfuidP+OyvZSX42pXuvp0Xro2scZ5nXlXr1JzQs95jBWxrOPLNbADj47Ep7WIIcFgr5Fdbh4v2zNjjGp3+V1O4NfGKjw+ZDeP6hKOnMxV+NT5c07Y2UeNyl/VVV9XD0yOq13p6tN56Tplzmts1HxHebmpRk31oWepuJmYzrXa44iHv4tpvnU34X9c2FtIEYdOD2yncziR4PSgqm/kz7hsV2MoJsfVrnR8Wep6jS4IxWU958UYYCpd5wAOqTHVI661wCMzFv+M7OpW/so3GqPDd/6otWcsalUvxiFWPUN1CQceHo506iLJCVn5Rn7NrfSuHtgcV7vS8WWpa5Q5r7GRPsqjgWo+PmTE0LOcjWn9ao81bv19TXZprW//SZgDp5dB+NTuDnWFGWGJjaTOp8LluNqVrj6tt7jx8jsuPg0v5iw0Yc1nXvjCRs9yFFNsrqmxSu/qVv7KV9XE1+E7f+TtGRvVYo6MmbHVBR0YXsEj9JBqwzHi2BWGWIUlNpJLeTmudqWrT8fV9TpCp6lq7fBlP/bWmNav9ljj1i/UhOMdHBuiOr41cubH0TqG6mvGmcXGQdODp3qOVXbnG/kjNnrlOWRsjqtd6fhCaq3ZNVqDizHAdzrxkBmjdsZ1McXlmjmW7a5m+DWW7VynsjVf450/MHvG1sw5j1td0MEdamZ9xq4w4Rv5iXdS51NhclztSscXUuvp/h2h01y1dm60itka0/rVHkc8/F1M862/r0nf/tvRHLw4dKpzCPGpVGz2k5cx6l/Sq5rqQ9cxZnTyQh5xiLRupev4GmcuOa6YHOty8M/IrmbkjmKztRWX64WtccbMPuwOn+uCp14Vr3yaV13CI37B51w3bM3TODnIUQxMJas89aFH7hodbEhdmz11mqlKra/+0PeIUaPa44i5Cb+vubIXS/L2Tbg62E/wLW28468dxiMv73fsTb6kn3Amumd8x3q/c4y8tzq2m/Br517Xci/dTXjhx8fdwb26fy+CuE59aN2E//4j3aufh9H87sbxrgm7Addn+ez9dxPesQnrj7iyProEjoidTayjx8/rq/bWsbVG1qOm+raOcaU8vayP4OCopq5l1kd5R8SutCevzkX39NVazn9P0751EzaJ3kMir7PX2RwwB8yBbRxwE/5/2xbOhPO6mQPmgDlgDrzKgbc3Yf9ewqR9lbTON4fMAXPgLhx4exNm4fy7Cx8iuGBpLpgD5sBTOeAm7B9H/+3fJz71IPi53QTMAXPgDA68/X9R4iH9SdiEhwuW5oI5YA48lQM/n4T1z0eqvnZRZv5sJTXdhH3o4IKluWAOmANP5cBpTTgW3F/S8sF76sHzc5v75oA5EBw4rQn7k7AJ6EvIHDAHzIGnc8C/E/YXs/zFLHPAHDAHzIGTOOBvR5+08E9/9+fn9ycgc8AcMAf+9+PovRYivpilr1Fd/zjaB3DED8fMD3PAHHgCB3b9JLxmwdyEfcDW8MVY88UcMAfuyIG3N2F/I9oH6Y4Hyc9kXpsD5sAWDry9CW+ZpHNMbnPAHDAHzIE7csBN2F/M8rcizQFzwBwwB07igJvwSQt/x3d0fiZ/UjEHzAFzYB0H3ITdhP0O2BwwB8wBc+AkDrgJn7Twfre47t2i18vrZQ6YA3fkgJuwm7DfAZsD5oA5YA6cxAE34ZMW/o7v6PxM/qRiDpgD5sA6DrgJuwn7HbA5YA6YA+bASRxwEz5p4f1ucd27Ra+X18scMAfuyAE3YTdhvwM2B8wBc8AcOIkDbsInLfwd39H5mfxJxRwwB8yBdY0e5nwAACAASURBVBxwE3YT9jtgc8AcMAfMgZM44CZ80sL73eK6d4teL6+XOWAO3JEDbsJuwn4HbA6YA+aAOXASB9yET1r4O76j8zP5k4o5YA6YA+s44CbsJux3wOaAOWAOmAMnceC0Jvz19eub17veOf36+rUb0V6tFfmv1njXunmcde9svV5eL3PAHJjlwClN+N3NNxbjiIa3tebWvNlNNc4XgDlgDpgDn8EBN+EXfgSxtZluzfOh+oxD5X3yPpkD5sAsB77+/a9///kjWtVnC2zBdZ+E8aukPr6w0UMSH8mlphfxDjOKxZhd3ivzGeU65sNtDpgD5sB9OPDzSVibr+pHbLQ2UG2i+HVM9aGTg634mHs1/6VGOWq0o1iM3dXu5jLK0Wexfp9D5r30XpoD5kDHgV2b8H/++5/v/KoGrhrokq+K59pd4+saZc7fYne1q7ksNfQt4zvHh9scMAfMgc/lwO5NeIYMVUNd8lXxmbEC0zXK2fwRbkvtLTmjOTj2uQfQe+e9MweezYFdfyccn4JnCFU11CVfFZ8ZKzBLTS/iHWYUm6ldzbEbq8La9+wD6v33/psD9+bArt+OfqUJB9FotCohID7sNXKp6Y0a7SgWc1iqXc1zS05Vx757H07vr/fXHLg/B05pwmcQa9T4Ro12KbblWUZz2VLPOfc/qN5j77E5cE8OPL4JLzXZUcMcxUYHZmveqKZj9zyg3lfvqzlwbw48pgkHkfdsfq/WivxXa/hw3vtwen+9v+bA/TnwqCZsQt+f0N5j77E5YA58EgfchF/4s5W60f5U64OvfLiCbk6ak1fgoecw5qGb8A5N2JfdmGQ+hOetj7l53tqb9177GQ48pgmP/okTsZAzi6aYrZfc19fXd7y01hE647xjrLXzr+bEfNfWWsJv3aelumfHZ55rBtM9R+S+kt/Vtd8Nyhz4zYHHN2Ea8FZCbL2gjmo23XNUDa/DvstfzemIddm6R+9ah6VxqnXSnKXnW4prLdW35mkN62625sCYA49pwh0RXmnCn3RJLV3k3foc6X/XnD5pn6r1XlqnmeebweSxt+TkGrbHF7DXx+vz9j9bqf/LkepHkZEmi8zjdP6Mq+zRJRUXp77Ir3zEQmocvfJrTo7nGPHK3/kYG5lx+JHEsZH4kfiRlR8fEiwSPxK/SmJb94j8kFEXG70aaxSjTpc34wfDXFSOnjNwS3Gthb4lh1xLNxdzYI4DP5+EtRmqvnYRZ/9spY6h+trx1uCrZosPWdWL+XVz7C4pLuOqHr4Kk31qh55tamWpOGKVj1glR+NVtfCtySNHx+986u/0qKOxsEd7lLHMI/vVDj3bmjeKgUOCHdUMLDjyKtk9J9guvoXf1LScu2S9Tl6nEQc+ugnn/zZx9Caga7Sdn0XbcklxqY4uzyqWfWqrHnOr7PDxYv7IjMffyYxXmzGyjFqKy/YoxjwyJtfIdsZnu2s+Gcf4uX621+TlmpGbX7n+jK110bvnXIpX/I5aS/Woa+kGYw68xoGPb8KzBOiabeefqTtzUXHp5nrVZQ4WqTkZr7bqkZPtzqf1s55rqK36K3lVnRmfYkLXV55Pt0daI+fkmNqqL+VpfE1exmZb66J3zzkbB6dyqaZirb92EXv9nrt+H/074dEn30zqrtl2/pxf2bOXVHWJzvoYN+PVzrraXT7+TuYaaoeuttbIfrWzrjY1ZnyKUZ0aKrs9irwuV/0ZpzEdJ/SlWBfP/iU7jxt295xgl+LgVG7J0Xzrz20s3vv5vf/ob0fPNGGarEolCH71rdGriyouUX1pPfWjE8dWqTH0kIHJdpen/pynNVRfyslx6iKpVdn4kIENPb9GNTTW5QWm2p8uF3/Irmb4Faf6KFbVBI+kVmWHjxc4laPnHMW0Rta35uU6tucvZK/V89bq9k34aFLveVHlyzfmXvmOfqYzx137bNX6ZN+ee7R2fu/ALz3fUryb49a8rp79z2sw3vPlPXcTvtCfrczNIwhc+d5B7LPGXfts1Tyz7+7NZPR8o9jSWr+Su1Tb8eXL2Wv0jDVyE96hCcdh2evCigair6MOoo6R9RgzfEeNvXfdav55jL32J9c92x491yg2O++osUed2fGMe0bj8T7/tc9uwjs1YZPqL1J5LbwW5oA5YA7MccBN2E34Yz7x+lDPHWqvk9fJHPgcDrgJuwm7CZsD5oA5YA6cxAE34ZMW3u9UP+edqvfKe2UOmANHccBN2E34H++A8xed9EtaOabEzDHNC5zG1+Rp7ihvFJuZS8ZQT/3dM4C19GVtDpgDazjgJuwmXDbhjkTakAKjtuo5fxQD22HwIzt8juf5dXn4K7zWVF1zrPvSNQfMga0cuP2frdT/AUn1rQs2k/f1x69vfZETvtDXxsh/lxw1mxxTW/U811EMbIfBj+zwOR64WZ/WJCckeleLPKT/SY8vY7hgaS7McODnk7A2J9VnCihm5s9IBl7HUF1rzejvHm9mTjRaxeKj+RLDH/YoBj7WKq/X1x9f3/kFHlnlEaskzUclOG1K4VNb8ejkgVW8xohnX/ZrvuoZR52MUf8oNqrX5UWOm7AvXjhmaS7McMBNeOcfR9NMs4zN0KabN2cUA7u2mS7ldc171GQipi/GCDnKm8FV+YxFvmKIIcGoVLz60bt451/KI27pC9gcMAdmOOAmfEAT7hZ+1GhHsa5e+HMjDXuEn4mNGpDGQs/2TP2feRd/kUtrUYcxssw1iJOHrGoSQ1aYygceOYMBa+kL2RwwByoO+HfCBzThrqF2/tiYUazauCN9o+aSY2qrvjS/CrvWl/HZ/lnXotnnue2Z5x9H+6LN/LJtTow44G9H79yEY7GjoeYX/m4zrtaEozHpi3nnhgXm5/lSjmLBIamnUvH4R74cq2pnTDVPxlK5Nc9N2Beu8si6+bDEATfhA5rw0qI7ft+D6SZ83731ufXeHsEBN2E34Zd/h3wEMT+xphuwL+lP5K3nfC5v3YTdhN2EzQFzwBwwB07igJvwSQvvd5/nvvv0+nv9zQFz4AoccBN2E/Y7YHPAHDAHzIGTOOAmvPPCf339+o7Xu95hvXu8dz2Xx/GnFHPAHHgCB9yE3YTf9obhCQfKz+jGYQ6YA2s44CbsJuwmvDMH1hxAY31hmwPP5oD/YtbOFzA/HlbJIcMXNnrIHCeGP+OrHLBVrv/pzLMPOdywNA/Mgetx4OeTsP7PPKqv3bB3/69G7x5vZj1yE1QbPWTUws56ZevYXZ76Fe8mfL2Dp/tj3ftjDjyXA27CB30S5lBpY1SdOJJYlqN4xDo8eZbPPdzee++9OXB9DrgJX6wJV4eGRktMbXSV4CyvfwC9R94jc+DZHPDvhC/WhKOZ5kNJg8WvdqeDDekfRz/7kCsXrJsL5sC1OOBvRx/UhGmOISE9PuwsiasEoz70iKle2eFzE77WoWNPLb0v5oA54Ca8cxO+4qFyE/ZBvyIvPSfz0hz4v2834Zs3YTdgX3S+6MwBc+C6HHATvnkT9uG77uHz3nhvzAFzwE3YTfjP31n7QvCFYA6YA+bAezngJuwm7CZsDpgD5oA5cBIHbt+E/TvR976r87tor7c5YA6YA/McuH0ThgzRjNEt5wnitfJamQPmgDlwHAfchE/6EYRJfRypvbZeW3PAHPgUDtz+L2axEf4k7EMJFyzNBXPAHLgKB34+Cev/nKT62km++381mh0vnsNN2IduLZ+NN2fMAXPgaA48pgnHQvpLWj5QRx8o1zfHzAFzYA0HHtOE/UnYB2PNwTDWfDEHzIF3cMC/E/YXs/ytcXPAHDAHzIGTOOBvR5+08O94h+Ux/E7eHDAHzIFrc+Djm3B8OYvXiGz+cfS1iTjaO8e8d+aAOXBXDnx0E16zKW7CPsRr+GKs+WIOmAPv4MDtm7C/Ee2D9I6D5DHMM3PAHNjCgds34S2L4hwfJnPAHDAHzIF3cMBN2F/M8rcizQFzwBwwB07igJvwSQv/jndYHsPv5M0Bc8AcuDYH3ITdhP0O2BwwB8wBc+AkDrgJn7Twfnd67Xen3h/vjzlgDryDA27CbsJ+B2wOmAPmgDlwEgfchE9a+He8w/IYfidvDpgD5sC1OeAm7Cbsd8DmgDlgDpgDJ3HATfikhfe702u/O/X+eH/MAXPgHRxwE3YT9jtgc8AcMAfMgZM44CZ80sK/4x2Wx/A7eXPAHDAHrs0BN2E3Yb8DNgfMAXPAHDiJA27CJy28351e+92p98f7Yw6YA+/ggJuwm7DfAZsD5oA5YA6cxAE34ZMW/h3vsDyG38mbA+aAOXBtDrgJuwn7HbA5YA6YA+bASRx4XBP+9fXrH2SrfH73eO13j94f7485YA7cgQOPasK52WJneYeN9TP4gjIHzAFz4PoceHQTDoJGA+Zlwl6fsN4j75E5YA7ciQNf//7Xv//88azqWx7yP//9z5+1unwdQ/UOv6efT7zUxM6SuKUPuzlgDpgD5sCRHPj5JKzNUPW1A8804aipY6i+drw1eBptlTOKVXj7fCjNAXPAHDAH9uCAm/BJ34jbY/Ncw5eAOWAOmAOfzYFHNGF/0v1skvqS8f6ZA+bAXTnwiN8Juwn7AN/1APu5zG1z4LM58IhvR7sJfzZJfcl4/8wBc+CuHLh9E3YD9uG96+H1c5nb5sDnc+D2Tdgk/XySeg+9h+aAOXBXDrgJ+9vRi/+2+67k93P5YjcHzIGzOeAm7CbsJmwOmAPmgDlwEgfchE9a+LPffXl8fwIwB8wBc+B8DrgJ/+/vRz+BjFf9ktoR83q1ZuSPahAfYT6NU3d6liPWnj3X2vjWrt0Iv7WmzmuN/u7x8txGa5Gxd7Qf3YTZ/CyXNho8uGzjv5pcM8812Fef84ixXq0Z+V2Nzv/qOpydf9fn2mtd9+TEzFrPYPZ6tqjz7vGY+1njMv7Z8tFNGOIFCdYQIWOzffamduOvmecabDferP+IsY6oyfMcWZsxzpB3fa53rOXatZvBz2D2fLZ3j8fczxqX8c+Wj/iLWd0is/lZdnj84Ed2YHiBG0mwyIzFj9Q4PuRsTHHo1MiSeMhRTHFZ7/LCr3Vn8zSH2uRSUzHERpI6mg9eY+jEliR4JHhsJH4k/pD4kBrL8VGM/CyXckbx2RhjZrzaHQb/kqxqRU74Nbeyyc24yp8xaqOTNxorxzQXXaXW7HIVj655+FRWtfB1ueoHS02N4UNqTPNUD2y2yb+T/PkkrP+TkeprH/TK/4tSPFf3bKONrvLAZ9mRBhzr2dVUXKdTgzgSv84hx7Id2GouWkPr4tc6oavd1axw1M4xrae64qu5ECeGrGpErHt28kJWr65eV3OEj5jGVc9jayznKVZx+LOvevZcU3NUzzVzHvFKUkdzsh554LRG9lXPoPhcJ+dnW3OrWOUjZxSrMIHXHNUr/Brf2nVZqq1z6/RRjYiN8mZjjHE36SbcXLRsdEVoSJMlZAt/flEv5KgmOGov1czjYJNHvcoOXzWXDtv5da5dzYwJHK8cUzv06tXNRWtqHfwqu2efqa11VK9q6vwVW42T56y5GlO9qpnzMr6bp9bSnKoecaTmqp5zI6Y5lZ5zsLVu9QzUBp9rYxPXeviQGqNu9mFTFxtJLaT60UNW+Z2PWiq11tp1Ibcbj3iWOr7q4NSntVUPrNrkZD817ygf04T33DxIk+UrxKEW81RbdeLINbERlnrIDlv5Kx91kCNMjqmtOrWQM7ERhjqVHOWNYlUt9UWu5qseOLVVX4rlMdSe1Y8Yr6up/kpX3+z8A5fzOrvzM1aOV7XBdrFcQ23VZ/M7nM6j048YL9fUsXNMbdWrZyKO1Lp31B/9O+GtGxrkgCCqQyhia+rnHLXzGFp3KQZ2hAOjUsfPfo3N1h3htF6MpfZSnmLzPLE7DPFKjnJGsapW9mm+6oFTO+sjW8cInGI1NtJzjtqjmksxxlRcrq2Y0BVLbEbmumpTVyU1FdeNrRjykFVMfbmmxqr5jHw5lzmMpObkuZCnmJFPY1VOxNWfxxvFNFdxjHlH+fhvR2/ZVCWV6tTCp5JYJwOrscrWehrP/ioWtdWvY1V6rqmYUUxxWe/y8rwqe5SrMcasahAbSa2FnvG5do5nmzpIjeNDaix0/EiN40OOYoHReKVTB5kx+FWCUV/o+ENWMcWM9CpXa1f6Uo6Op/ldXvZr/ijWPfvIX8V0vJl4YKpXniuY7NfxVAevcilX41Ve+KoxKp/m30l3E24Ie6dN9rPUl9IV1uVJl80V1ttzuO5Z0L150rlwE3YTLt8164GwftzF9aTLxjw6jkd3WtunnQk3YTdhN+ETOfC0C+dOzcLPsu+bijgLvJ60tm7CJ17ATyKan3XfC8vr6fU0B+7BATdhN2F/EjYHzAFzwBw4iQNuws2382bfZR7148Q96u5RY3YdlnCeS/2u/UrrsrSHs/E9nilq8Jodd0/cmmdYg63myHPmOvirnLv6eOa8Fnd93niuRzdhNjrL2Q0nbxa/Bremdoft/GvmsRbbjdn519bfA++51G8I9ljbqLHn+u5Za83zrR13LZ65jPIiNopTY1ZurbU1b3ZeFe6MMat5vMP36CYcCxybzWvtgh9JlDW1O2znX/uca/DdmJ1/Te29sJ6Lm/ASl9ZyZC2e8bfmkb9Gbh1ra96auWXsGWPmObzLfvRfzGKjs5xZfHIqbMR4aRwfUmOh40fmeLbBZQku/FoXP74lW+sqttIVqzrY0VwCozlgye1kxlU2dbWG4ro4/oxdqkOe4kY69bs8/OCopf41scjvcjv/HmNSI0sdM8fCzs+mvi5X/TlfY3k8jWme6jp+lZ99nZ3H0jE0lvPBdRj1V1iN59rZVqzqilN/6Bob6Ut5Xa1R3tbYaJ7viP18Eo4/+M1gquOblU/5X5RiPTqS5LVSHCQBk2P4u/qjP8yuuehbx9N5USvLI+cSY+U5VOOByTLPNddTPDo52dbcHFM79GxTE9k9w1Ie+RmXbcWNYuCQYEOiR6zTqzx8OQ9/9ezEkDrekk+xnT6qEbFR3myMMXI99Y+eXcfRnK5e4DWn03Otrp7iunnqGIqv5pKxVc2cpzXRc53w5zy1K/xSLeJnSzfhhW/EVSSCEN3mQQ4kuEwUtVXv6q+dy6jmUiziGcNzhNx7Loyncmk85pcleVoLTMTwg1NJLEvyMhZb61fY8FVrtpRXzaOqr3VUz9hcDzvjsg0uy4yr7PBVzw5Wa4ZPXxFTm5zsw9Zaqndx9aOH1HGpk/2KH8W6Zx/ldDGdVzW+zrWKZ5/a3Ty7MSt/9lU1M0bngF5hRr6I8aIGEn+WxM+Wj2nCey90bGhVM/vVVj1y1VY9x6px1JdziWW/2qqPxgtcxlK/kh02+9VWvarZ+cgLyQssscomhgQTsvIRzzG1VV+qQ70Kp3VUz9i9YlvnMpunuKyPngFsxoS/8o3wXUzrqF6NQRxJTZWjmOJUH+VUscqn9dADl7HZBrsku7zKX/ly/a2YKq/zqV/1PJcr2I/+nfArG9BtrPpDz7aO2cVynuZUutbReParnXW1tUboo9gsNtdQO3S1c83O1jzV85yXYlo/Y3MMO+PCJhYy2xpTPePUznq2uzqKy3OJWI5TJ/vVns0b4RgHOVNfMVUePuRofK2VcaNY1CaOZDyVo5jiVB/lVLHKp/VUz9hsK3akd3nh11i2u5ozOK1LnZyXbXAhNX+E05yz9Md/O3rrwusm5xpsOpJ4zqlsfEhyRzKw+gKba1R2l1f5qTuSmqfjqR75ld3lLo1HfKnmCEcsZJ6H1s0x8jo/8U5qbcZWbFe381ND41qvijMHJPjK1roax099aixJ8pDgsVVqDL2SmoMODhuJP6T6QtcY8exTu8rReKVXOcxDJbkVXmNVzmwcXJZaM48/iuU6and52T87Xs7TsULP8Vw3499puwmn30GtWfwrbeSaeRv799877rEe7+bCaLxRbI9nfWqN0bqOYk9dLz/33D3jJuwm/I93/D48c4dH1+ndl/BovFFM52x9fp+X1nQp7rWeX+unrZWb8AtNOMjiw+fDdQYPRrwbxZ52wb36vLGWvLpaXm/fAR03Zvxuwi824ZlFNsaH1BwwB8wBc6DigJuwm7B/HG0OmAPmgDlwEgfchHf+kbJ/NPX73S4/wnvKepz9vHus8x41qnf64WN9uvhe/iOfYa85nlmn2gd8a9duhN9a88y1OWvsRzdhSJTlzGaQk7GdP+PubD95Dc569j3G3aNGx+uofWR9xn3HGIz1iXK0D2vXbgY/g/nEddxzzo9uwrGQkHItWTp8599z065e68lrcNaz7zHuHjXO5uYdnuGsNVy7djP4GcxZz3uVcR/9F7MgSJajzQls9SJHa6ETC5lzNdbp1NFcxXb+pfE0jzG0bqd3edl/RM08Jx1zFMtz0bwcy3XU1jz1o1e18HW56ger9YjjQ+JHqh89ZK6pMdXB5Xpg8INTP3pIjXc54NbEta6Op7rWq/Cj+NpYxqvNnNQXOv4lqXmKzTUqm9ycV/kzRm108kZj5ZjmoqvUml2u4u+s/3wSjj+yzUOqjm9W+n9R+qvJsmZKMNWrePi6P3iuuapTB6mx0NUGE7LyZ9/sXHJetnXcrqZiVI9aWk91xYWusZynWMXhz75qnmCROSf8nU/9nT6qm2trjTUxxqieL2pqXdXJQ2pM9TyXCq8+ze30rubaZ9D6OgfqV/EqFjh9ZQx1kIwFTu3qGTSec3LNbGtuFat85IxiFSbwmqN6hV/rA3936Sa88I247pBUhAuyZL/aoVcvJVk1ntZQLHquqX70LHMOtuJm55Lnl+2ZmtX4kZdrVTa5GlNdx6em5qArrnr2KldziM/4wDB2ll1c/eghIx+bWtlPPGT1fFqjyqUuknpqq068qlX5Ipcc1Sts+NY+A3PLsqvfzQW8zrHS8zjY1A1ZPYPWzzlqq05NfEj8yPCjZ9nFqIUkL+OzHbjORy2V1H2afEwT3ntjK3JVpFOc6mvmM8rLMbVVz+ONYhmrdpWXfdnW/CU9cjVf9chVW/WlmI6b8zQ20nNetvMcqFXhtsS0jurVuMSRjDeSGau26lvGy/mjGsQih9do3hrL46ituuYwXvZhV3nhU3+lq49aMzLndXbnZ4wcD3/lW4PXfNW72hnT4ZjDE+Wjfyf8yoZX5KoIprjQ1Z4df5SjsVw/2zreKKa4rOe8bAc+fDlvja35qufaGgt9ZOv4GauxkT5TXzHUqnwa6+LqDz3boxpgkWBHMmPVzrraURMbmcep/Nmntuq51sjOeWqHrrbWWRMDq7UqHZyOM6PnWmpHPjaSmmqHrnaFwYdcwueaGZ/tqNv5Kr/OYxQHdxf5+G9Hb93IIIm+qJPJU9mal+PUUbmEGdVbE1sahzmNagZmts5MvZmxFENN5jEbm52z1tOc7M8xnVfWl3I1rrn4eVaNdb6MUVvnXOUzHlJzKzw+8EjywkYHiw1WJbGRVHyuzxgdpvNXefiYi46V9VFd8rNcytExNLfLy37NH8Wido4zXuevcnS8pTh1Gefu0k144XfCdyfA1Z8vH96rz/dK8/vktavmXvmutN6ei/8s5RYOuAm7Cf/t08gWEh2Z44t328X26etWzb/yHck9197GPa/bunVzE3YTdhO+EQeiUfH69MuQ50B++vN4/uua01PWy034RhfwU0jr5/RlZg6YA3fhgJuwm/ClPwnf5aD5Odw0zAFzoOKAm/CGb/NWC4kvfnSG3sl3/XhtZi7dHDv/ETW7sY7y3+EZZtcGrp31zGeNO7s+HW4071Gsqxf+rXmjmnvErjivmNMV57XHeucaj27CbHKWeZGyDUFUgqEWdiXJq2J7+mbmsna8I2qunYPit8xnS46O+Sl695yd/4jneudYe85/NO9RbDSHNXlrsKMxNdbV7Pya+2495lTNq/K9e257j/foJhyLyWZv2dwqp/LtvWmz9Y6YyxE1Z5+nwm2Zz5acauyr+7rn7PxHPM87x9pz/qN5j2KjOazJW4Mdjamxrmbn19yr6J8019k1e/RfzGJDs5xdPPIUjy8kOnF82V/FOwxYlVpX89CJa07o+JEax4ckFrbqauPPkhqVDGyuUdmaS4760PPYlU39Lgc/OGqof02smu9MTTCd1PkoRv3oEUfPcpRLLHJyDWIjORor12MM6nW5nZ+8kdTcjNNY6Bo/Iqb10fM42MRD4kNqrNLBZQk2/FoXP7LLI15JahKrbOqCCYlvhJ/FULeqRSyPqVjVwc3kKWZG//kkHH9EHLDq+Gblk/4XpViTvEn41K866zjrA4+s/th71KrqLc2lysG3VLOqzRxD5nlqvaxTS/OZRxVT3Ew8z4Wc2TEyLtvMJ/yjGDgk2FEe2OoZiCGphx2y8q31U2PrPEd51K7mvBTTuOrUWrtmuYbaquf1yzGN51i2A9vNs8JSW2Ohq71XzajDeOjImfHAZEkNlWCWfBGvsJVfcapnbI5pPMfUVj1yNA97VroJL3w7ujsk3aLnzcn2KC+wFZ7NrOYywueY2qFXr25+zIEc7ErmeeZxycGPzP6wGS9jKiw+lXku1FRMrq1jakz1XGcplmuCRzKfbIe/egbG17rUQFa1yAOjUmupPsrR/GqeeQ5q6xiqM5760InpuBFTO/RqLuRSS/NUB0fNpZjWQ881Kjt8o3kyvso8l6ruqzV1DJ4nS51TNR41siRvVK96Js1DV8k4+NRWPeJqh169Mi7bVY7WZR4z8jFNeGYx1mKqRc++bMcYlU/HjvgSBvwIl2Nqq04t5ExshKEOUrGVrr7IybbWybFsgx3JnKO26nkue8V0bqOaisv6TF7GUGOtP/K6HGp2MueprXrOXxMbYbVuxqmteuSorfpSbHY8xVV6HhNM5a984FV2uOxXW3WttaSTF5IXOcQ6O/wZM8JWeM1XPWNzjHEyLtujPK0xoz/6d8IzCzTCVBuRfdmOepUvATZI/QAAIABJREFUjzODoVaHzX61Q1dbx1+Kge3yiSMVV+nZpzY1kDmWbXAjmXPUznq2te6amGK7GuHvcJqTcZFT5VW+nKt1uzqjHM2v9DwHtZfGU6zWzv5sK1Z1xYWebbBrY1qHGiHVn2sqrtI1V+O5TrYVm/VRTcUqbk39XIM6uQb+wOcYNRSDD7za6IrPNZdiGqdeHquq2eVpjRn98d+OnlmkDlNtQvapHXp+UbvzEx/JLjf8mlfZo1yNUaeqQayTmjPSu/EqP2NpTGsTr2TGVbbWpYb6ZnO6XPKRikNfkqP5RG6uTb1RXo5RA0mNWZnr5bwc13G6mGKiXrbzGGrnmlWsqkneKAZG54OvytOxs04eUuP4kBob6eCRYMNGD1nZ5CAV3+laR3XGoJbG1Ieu9fEhqxj1q9goj1hIctWnfsYYxamxJN2EF34nvLSAjj/nr+DkQ6h7P4opzvpz+OK9Pm+vP+k8ugm7Cf/5rs+XxvjSGB3sUczrOl5Xr4/XZ28OfNJ5dBN2E3YTnuTA6GCPYntfMK7npmUOjDnwSefRTXjyAjbpx6T3+nh9zAFzwBxYzwE3YTdhfxI2B8wBc8AcOIkDbsLFtwHf9W5u9kcms7gt847aR9bfMifnrH83Pbtm3uvj1nZ2D4zzHigHHt2EuZCy1AU6UmfcpTFmcUt1qnjUPrJ+NebVfUesx9aaW/O6Nd67XowTNfOL8fGrrTpx5JYYOSGpg8wxtcEjyQmpOPWjE8dW2cXwhwy82qprLXSNW79XE390Ew4yQ/LRoTiK9LNjzuKOmufT6h6x3ltrbs3r9mzvejpOVTt86led3Flfh9d81QOvtuq5Vo5lO9ciHzmDV4zq1ECOYmAs79OIH/0XsyB7ljMEjxxeiseH1Fjo+JE5XtmB1dyMoRY44iO7y9FxwFAPiV8lsZFUfOhgVQ+f2ugheeU8/GA1XsXUpznZj029JQkeGXj0LLWWxvCrT3XiVW2NdbrWCj3jluIZr/aoHrgOQxxZ4bqYYlUPvNqq51o5lu1ci3zkDF4xqlMDOYqBsbxRE47NjD/Azaaqjm9WPu1/UWJd9NCEnu0KFz7Fgen+GLpiVScPqTHVu/EyBpz6Ox0sYyNnngFsVSOPl21ywz+KgUOCHeVV8yEf2T0f8UoydhVTX8ZlG2zlz75unorr9G6cqmaHDT/1syRHMdkXOfoiTq3KXhPTsUd51Tj4kDmf2uHnBZaY2qqDV6lx6/dpwLGXPz+OjoPFxqqOb1Z+ahMePV936egBCZ0aqodPbdVzjPxqvKW8iOuLWvgYK9fBDx6ZcWqr3uXPPANjVTV0DNU1p8rTeORVryovj5FtrRt693yMl/HVmIohD5ljaqODzZJ4yG6eiol87FwLm3hXk7jWyj5iSOIhZ33kBF5f+Kk1iikWPLLLIyfi6FlWsexTW/WZWhlj+z6N+DFNeE/S5gOktuoxptqq59hofqO8UUzHyDjGq/zZp3bo+qLOktQaGZtjaqu+lKfxNXkZm22tO6NHfq6Rbepk/5Ld5eFfkqP6ObZUK8erfPWFrjb5s74Kn2tqrVEs19I8YlmOMFUs+9RWfc04GWv785vxo38nvJXAeoBCz7bW7WI5T3OyrjUipnbW1VZs9jNG5c8+tVWnxoyMvC5X/RmnsTzOUqyLZ/+SncedsWdrKi50tWOcbDN2hSU2krme2ltrMp7Wqnxd/aU8aiEzXm3VA6+26rlWFQODHGGqWPaprTr1kaNYYCK+hKGW5fWb9OO/Hb2VpBwEJHXy4ahsfEhyO5lxlR0+XrlOxkccrEryMl5txaOTtyTBIxWPD0ksbPQsR7HAUkslfq2V6yg+xzRP9aWcUXyv2MxcR2OxNksYfe6lHJ0Tdav8ygceCUZr6vjo4LAVTy0kWMXgy7LCUEcleerLuTmm8VEsahNnHMvrN9rRHrkJn/RXUkabcuWYXhbMs/IRs/zsC8L75/0zB47lgJuwm3D7SbM6fFXDrXxVrn3HHmavr9fXHPg8DrgJuwmvasJxyKPp6ssH//MOvvfMe2YOXIMDbsJuwqubsA/vNQ6v98H7YA58PgfchN2E3YTNAXPAHDAHTuKAm/D/fry69I7Sv/f8/HecS3vsuPfYHDAH3s2BRzdhGmuWeROIZ79tH1hzwBwwB8yBVzjw6CYcCxcNlle3kG7CPmQdN+w3N8wBc+AVDjz6L2bRXLPMC0o8+2378JkD5oA5YA68woGfT8Lxh94pojq+Wfmp/4HDqMmOYrPrYpwPqTlgDpgD5kDFATfhhW/EuQn74FQHxz7zwhwwB/bgwGOa8JbFcgP2IdvCG+eYN+aAOTDLgUf/TnhpkdyEfZCWOOK4OWIOmAOvcODx344eLZ6bsA/XiB+OmR/mgDnwKgfchJvfCbsB+3C9ericbw6ZA+bAEgfchJsmvLRwjvtwmQPmgDlgDrzKATdhN+E//3naq2Ryvi8kc8AcMAfWccBN2E3YTdgcMAfMAXPgJA64CZ+08H63uO7dotfL62UOmAN35MBjmvDX16/veFWbSKyLVzn4ui9wff3x6zte4I6SjLPnWHvW4rmXanbrSL6lL2BzwBy4Iwce34RpwFs2d9Q4aI5b6m7JWWpya2ruWYtxZ2qO1pM6lr6IzQFz4E4ceEwT7jbtqCbcjXeUf6bJzY69Zy3GnKnpJuzLFb5YmgtP4cDt/2IWTRaZN7bzZ1y2u4YRzYZXzgmbGLLCZB9YZI5Tt/NXeeFTvNrgkYpjrJlYrkmdLjfi3bqSa+nL2RwwB+7EgZ9Pwvo/J6m+9kGv/L8oVc0WH7J63liPak2WmoU2IOpWPmIjmZtWVafy5ZqKUT1waoee7VwLO+PUBqP1c23FhL60rhlv2xeyOWAOfDIHHt2EY+NGDTjiezfhpSZUkSk3tmz/PEf6ZEsdxkNmf5Wb61c29TSmOuMgwWN30k3YF2rHDfvNjTtywE148K3p0YYvNYtRQ4q6s00JrM6lqj3jyxhsJGOM7DUx6ukz5HzFhL60rhlv2xezOWAOfDIHbv87YTan+8Tb+cnr5FKzWGo2UXcGU+GqvCVfxDMGG8mzjmyNhT6yqZefQXMUE/rSuma8bV/A5oA58MkcuP23o2myKnXD8KtvRu+aBY1JJfXUN2pE4JGjvBzLdXOcmsiMD/9MjmKoNcrN42SbGt26Erf0hWsOmAN34sDtm/CRm/WuhtE1rD2e7cjaa+f3rvVcOy/jfembA+bAURxwE37hz1a+q2kc1SiPqruVrO9az63zc54vYnPAHNibA27CLzTh2Iw9Gkc0w+4VY+zdLHWsvQm1td4e67h1bOf5YjUHzIGzOOAm/GITPmvjPK4vDXPAHDAHPp8DbsJuwn/7y1k+1J9/qL2H3kNz4HM44Cb8QU2YHyPrAcO394+sdYwj9K+vr49r/jFnXnutyRHrcETNV5+3Wjd8S/O9yq8qOGuvrgX5V3ku5mN5TuN2E/7wJszBcRN+3wFaahrsyYzcsxbjHVGT2ltlzKmbV+ePsd7ZqJbO0N5N+N3Pt3XvnHfs3eIm/EFNeHQYli6QUe4ZsdHFe8Z81oy559z3rMUzHFGT2kfI0Xyv1ISPePZ3Pt8R83fN1xv07f9ilv7nC6ofSR7eMefGOGOTq/PDl/MzRu0j9bg09cVY6qsu1qU4dVQu5VTx7FNba1e6YkPvMJ2ffI3nOmqDR2pe6Pg1B4zGNJ51tcntpNZUTK5R2eTmvMqfMWqjdw2Kc1CdC2LUUFvxIz84rZF9EcNXySo3cPhVds8Z/i6m+dZfb4RnruHPJ2FtTqqvndhV/xclfSbV1z7fFrwePNWjVra1fhWrfOSMYvHM+bm//vj6zi9qIcu8pjFFTr5s9aJWHSzjjORSzVyX2vg1H9/W8cibrdPhNV/nx9zJy3KUp1hwubZiZnTqBFb1ytZ6GbsFHzldAwquK987/WdcaXyjvIwNO790HPD4tLb6lmpEvHtON+F/7kFezzvYbsLFYXt1YzmQSOqprXqOV7HAhB9slqNY1UxzfmVXeVzsMxetYlSPsbJdjV/hNE91zVd/pytedcVX43c+/JHPi7pqL9Wv4uRrTHXGQYLHXiPJRZKrtuo5XsUCE36wWXaxrjmNuJ5jaqv+M6d0nnL8H/Mc4DUXPWT1ynW758w42/dsym7COzdhDiAHprM7f5cX/pwDdimmOPT8KThsYrMyX7j5MlVb9aif7W7MjFNbdc1Xf6crXnXFhz/bs76ch41kzJG9JkY9nV/OV0ylZ3xnd35q5rjOCYzKCh/xrjmtOQeKVf1nToOmqvNDH+VrDB1Jfie75+zw9t+rGft3wgc24TiE+SBiIzlQaoeudoXBh6zwxI6UeoGqHmOqnXW1R/PLOLVDV5s66ut0sFkqPmLZnvFFTs7DRjLuyNZY6CObenl+mqOYSldsHk/rKk796DmOP2T1qvCB65rTiOsaCz3bOr7Gwp9txVZxxVd6+NSf62F3zxn+LkauZc2pT1oXfzu6uRhe2UQOHzLX6g4meCR52CpnYmD2lFzOSK2dL9PKxofU/EoPnL4yRmPURAa203Md7KpeF9PajKX55CEzfjanq6l+ra06YzCHJdnVJC/XVr/mdn7NVzw6eSG7BhTnQHFZ13OiWNUjp7I1l7rqQ8/5Wivr5CCpi+ye00348xssezySbsIHNOHRgju27mDppf2OtTtyvCNrv2Ntzhija1BnzOWIMUfP5ya87q44Yn/eUdNN2E14+KniHSQcjfHuxnXUeEfVHa3dHWKjJnXn53MDfkYDDg67CbsJn9qEozl1rx+CDr5Vu+US7saiSSK31K5ydLwq/k6fziXr75zH2rHu2ojv+lxr9/fpeDdhN+FTm/DTD6Cf/zmfeLzX3uuKA27CbsJuwuaAOWAOmAMnceDRTfjr69e3vqp3Kfb53as5YA6YA+bAURx4dBNmUWnE2JY+cOaAOWAOmAPv4ICb8M+/Jf39ifgdC+4xfLDNAXPAHDAH4MDt/2JWPCifdJE8PHLJX8XxIall6cNlDpgD5oA5MMuBn0/C+j/sqD5bBNwV/xel3CSzHXOf9fGcGZ9tcJY+iOaAOWAOmAMjDjymCdMokbooI99MrMJofes+hOaAOWAOmAMVBx7ThKuHxzdqosSQkaM6NSx9wMwBc8AcMAfWcuD2vxOmYYbsFgdMFw+/YtBHNUe1HPNBNQfMAXPAHAgOPOLb0do00X8ePv07YW2q4FTqoVE/usat+4CZA+aAOWAOLHHgEU14aREc90ExB8wBc8AcOIMDbsIn/amyMzbbY/qSMQfMAXPgWhxwE3YTbn9X7sN6rcPq/fB+mAP344CbsJuwm7A5YA6YA+bASRxwEz5p4f2O9n7vaL2n3lNzwBxYywE34Q9qwl9//PqOl24yvuxXzBX1+E/lrzgvz2n7JRp7mvcVX/bndb7Kf3DPecrz22pf5bm2zt9528/D7Nq5CX94E2aj3YSPPyys9Ra51IS21LxaDg23mtfo+d/ZqJbOyd5NONbinc9Xrb19F78b9tyg2b8dveeYrvWbYEuXy9XWaXQpX22ue8znac+b12z0/O9sUmeck3c+X15329duwLE/t/+LWfofUqh+JDl5N50P/IxNrs4PX87PGLWP1ONC1Rdjqa+6dJfi1FG5lFPFs09trd3pig9dcRrr/JqjeNXJVWz41Eav8sB2MepXssthPHIqm1wwIfFlfMaojd41KLhecZ8YNdRW/MgPTmtkX8TwVbLKDRx+ld1zhr+Lab716zfTrXv08+NobU6qry06+0lYx1B97XizeB1D9dn8V3B6KFWPmtnWcapY5SNnFItnzs/99cfXd35RC1nmpaYENiSXMT69lFUHC24kl2rmutTGr/n41oy3hCWu4zAHYpVNLM9J7VFNxXW18I+k1lE9crKtdapY5SOni3UNKPisnO70n3lK4xvlZSxzU6njgMentdWn+eRkX/ecbsL3ba6ZA53tJnzA74Q5rEgWX23Vc7yKBSb8YLMcxapmmvMru8qLy5RXzskXrdqqR162cy3sjFNbdfC5tmJUV7zqS5iI64vcnLdkz+TlGuSE1DmorphOV7yOgV/raw3iSI2Rk33YOg6+kF1zGvE5x9RWPeov2TqXJbzWQg9ZvXLd7jkzzvbzmrKb8M5NmMPJYerszt/lhT/ngF2KKQ49fwoOm9iszJdxvmjVVj3qZ7sbM+PUVl3z1d/pildd8eoPPcfUVn0Jq3VHeTk2ytPYSM81O7vzUzvHw1/5RviIdc1pDdcVq/rPnNIb1xxnfsgcV7vS1UeNSnbPWWHte1Yj9u+ED2zCcUDzIcVGcuDUDl3tCoMPWeGJHSn14lU9xlQ762qP5pdxaoeuNnXU1+lgs+xqBi7XyrbW0ljO7XB57Fwj543iilVdc/J4gSOOJFftKk9zyVGp+ervmtOIzxoLPdtaX2Phz7Ziq7jiKz186s/1sLvnDH8XI9fy3k3Z/0Rp5yYcB4aDicyHqDu04JHkYauciYHZU3IBI7V2vmgrGx9S8ys9cPrKGI1RExnYTs911K5qEu9inX8pL+JdbvjJr2TOW8JTI+fhR3Z1urzs1/xRLMbrGlBwnflUUs+CYlWPvMrWXGqrDz3na62sk4OkLrJ7TjfhezdY9n8k3YQPaMKjBXds3aHTC/3Ka/cp87ziGnYN6opz3TKn0fO5Ca+7D7as/9Vz3ITdhIefOM4m8Kc0t0+Z59n7WY0/alIV/tN83fO5AbsBB5fdhN2ET23C0by61w9BF34ku/ZC7sZ6tYm+mr/2OTr8Uc/XjbeXv2tUe9U/q85dn+us9bzjuG7CbsKnNuE7Hio/kz/hmAPmwCwH3ITdhN2EzQFzwBwwB07iwGOa8NfXr+94Ve9OiHXxKgffO3/cVH3zEl9I5vQ0yRrc7blf+RH3O3l5t3X38/hT7Ds58PgmTAPesujvvuhGzebOTXjp2UbrsmVft+a80jSrMV+t925+Vs9gnxuaOTDmwGOacEeET2rC3TOEf6lR5dwtfyEr13iXvfbZjprX0pq92jTzvF+t5yY8vvzyetv2ep3Bgdv/xSyaLDIvcufPuGyPLjg+meXmMWOTq+Phy/kZo/aMzp+unMHOYJhfNV9i1FFb8SM/OK2RfRHDV8kqN3D4l2S1ZtEsqxe1cjOtbPLJCam4Lo5fsVpjxFPFWXcDMgfO4cDPJ2H9H3ZUX7spV/1flOI5qmaLD1k9b/WfGARu9nLTC171nzkNLv+M3YLnebpn+F3z9/+mBFZ9NJzqE2BVM+as8+7032P81fhGeRmr80TXccDj09rqIxdJDHskWZeM6Roh/ixzfthgVA+f+jWmNTImYrM81TrWz7mMve7PXPdHN+Eg/agBR7xqNuEfXW5c/EgOl9qq53gVC0z4wWY5inXPQI2uqRCvZFVzNIccU1v1GGvJzvMZ4TWGHrJ6UZf1QOJXWcWqJhg5+LOkXvj1lf3YKhWvumJCH/E0Y20/swl438/ddzfhwbemR+TsLjcuenI7u/N3eeHPOWCXYorLetlMJv6v4VxnaQ557mqrXtXJ8Tx2jqtd6erLtWbsas1+5t38YZFoksRpmIxDrLKJIcFQS+1O73ja4e0/90L2+j9v/W//O2FI3X3i7fzkdbK73PSCD13tqIWNpL7aoatdYfAhKzyxTnbNpMMv+Udz0Fjo2dbaGgt/thVbxRVf6eFTf643skdrVjXLn/nJj5MDo7isZ5u5qD/XBFPJjqcV1r7nNQDv+fl7fvtvR9NkVSrx8KtvRh9dblzyyFyvawDgkeRhq5yJgalkNJPK/4ov5jfK1/krVvXIr2zNZQz1oed8rZV1cpDU7eTSmkWj1JfW0Saq+s98m7wKl2vqeBkf2BFPtZb18y9j78Ez9+D2TfhIYvuCe+ahOZJTe9Y2P83PPfnkWsfwyU34hT9V5kvuGFL6sO+zrubnPutoPnodj+SAm/ALTTg2xhedD+iRB3RrbfPSvNzKHee9lztuwi82YRP2vYT1enu9zQFz4E4ccBN2Ex5+mepOZPez+PI2B8yBq3HATXjnJrz129ZbifHu8bbO03m+/MwBc8Ac+CcH3ITdhP1JeGcO+KL550XjNfGamAM1B9yEd76A3/3J9N3j+SDVB8nr4nUxB8yBLRy4/V/Mir9xzMKojm9vSVNUyRj4wkYPmePE8Gd8lQO2yo1vyvrbsr4g4IiluWAOXIcDP5+EtTmpvnajrvq/KOkzqb72+WbwuQmqjR4yamFnvbJ17C5P/Yp3E77OgdN9se59MQfMATfhg38crY1R9Xz4iGUJLvvDjlj2g7f04TYHzAFz4PoccBO+WBOuDg2Nlpja6CrBWV7/AHqPvEfmwLM54N8JX6wJRzPNh5IGi1/tTgcb0j+OfvYhVy5YNxfMgWtxwN+OPqgJ0xxDQnp82FkSVwlGfegRU72yw+cmfK1Dx55ael/MAXPATXjnJnzFQ+Um7IN+RV56TualOfB/327CN2/CbsC+6HzRmQPmwHU54CZ88ybsw3fdw+e98d6YA+aAm7Cb8J+/s/aF4AvBHDAHzIH3csBN2E3YTdgcMAfMAXPgJA64CU8s/NcfX9/x8jvE975DXFpv9gW5hJ+Jv1rr1fxujvG7/S62xv/1x6/veK3JuSJ2r/W44rN5Tte6Z47eDzfhmzfho5rC0cRcU3/PZ3y11qv51XPv2XBeacKv5FbP9apvz3V5dS7Of1bj3HO/3YTdhD/+U9GejW/PWnsd1D2bzSuN9JXcvdZC6+y5LlrXuhvqOzlw+7+YFYvJxYpkgbFVzsTAVFJroSsOHzJi6J3U/ErPeaOa5JOTsTmuuFEMXCfJrSQ5xNRGVwkOSQw7JD6Vozgx8J2NP0vykBpXH3rIwKiNrrmjRkNTRJI3sompJO/3fH7/uJp45dOYxlUPTNjZp/4uRv1KUhPZrU/4uxi5lm62V+DAzydh/Z+FVF87wSv+L0rVxcZz5Rg2ssPhr+QoN8fIV3+ng81S8TkWdhfHHzLjiFEv2/g1TzGdrnmqK15rZr2yK1+ulzFVPDBrcOCzrGrjC6lj4KdGtsPfNRIaFLkqc0xt1SNHbdW1HnoXxx9yqSZYaqokhqxqKT70bn3chN1gM1euaj+mCVcXXPZhI9m0bOOvZMaqrbrmqr/TFa86eKTGQl/r1xxykdTGrqTmZ538LKmDX23Vu3prMRnPuFp/hFF81qu8yqdjUaPCdU2GRoWkxu+6f//ylWJUz1hiSK2ZsRrr8JoDBkk+diU1H508ZLc+xC3djK/Ogds3YTaACw4ZftXV7vzUGslRbo5RR/2dDraT5CHBZXvJH/Eup4qBRWaM+hk7y4xRW/VcmzprMRlPHa0PJqTGl3TyFFf5dCywFW6pyeTm9bvutib81zz++SPpqm7GY6tkfupDzzFsZOCyTi5yaX3AWboZX5UDj/idsC6+XnSqBwYbSV628VcyY9VWXXPV3+mKH+maH7hsk9v5NScw4JE5Dxup+VmnRpaam3NGMeqsxWQ8dZbGVlynV7UrXx6rssM322RyswqbOc7GwCM1L3zZ7nD4NUfnQzzXw0ZqPjq5yG59wt/FyLV0Y74CB27/7WguQJUsPL7KJqYS3EgqHl3x+JARm9G1hurkqtS41g8MMfDYWRJXCUZ9WQ8MvqyTX0lyVFb5xDWGLyS11YdOrMollrHZBpclOJVg8GGrJKZS410joVGp1Dz1o0ccXSV56kMnhsQfMvuws9QcdDDYlQwMfnTykN36uAm7wcKRq8vbN+F3bwCX6bvH9Xiff+l03OkazdP3fLQubsKffx6ewm834Yl/J7yGDN1FuqaGsc+8QDrujJrNk7nSrYsb8DPPz6eeBTfhlU2Yi7KSQQL8exGCepXca4yj61Rzx3f02HvVZ76V3HuMql7XcCrsE3xeDzfau/DcTXhlE77Lxvs5fImZA+aAOXA+B9yE3YT//IKND+T5B9J74D0wB57FATdhN2E3YXPAHDAHzIGTOOAmfNLC+93us97ter+93+aAOVBxwE3YTdjvgM0Bc8AcMAdO4oCb8EkLX70jss/vlM0Bc8AceBYH3ITdhP0O2BwwB8wBc+AkDrgJn7Twfrf7rHe73m/vtzlgDlQccBN2E/Y7YHPAHDAHzIGTOOAmfNLCV++I7PM7ZXPAHDAHnsUBN2E3Yb8DNgfMAXPAHDiJA27CJy283+0+692u99v7bQ6YAxUH3ITdhP0O2BwwB8wBc+AkDrgJn7Tw1Tsi+/xO2RwwB8yBZ3HATdhN2O+AT+LA9/fX91NfbjTPajTe736/3YRPuoBNyp6UT1mbpzbgeO6n7LGf0+d8iQNuwjduwl9f+1x2s3UCx2uJeHvGzxhz6/z1P6Pfownz7HvUmqmx13isn64HPks3ridx4BFN+OuPX7u/8z6i5t7Eiwtzj5pr66zFL81xqV7ElzBLY+wRX5pDbjgzTW8Jw7NnXOfPuGwv5S3Fc73O1vXO66Ix627Id+eAm/DGT8Juwv3lEBf1ngdn73p7zk1rLc0zN5uuQe3h39ost+atnbOuW14XjVnvz5nX5h5r8/Xvf/37zwtT9S0b/J///ufPWl2+jqF6h3/FH42yemnNHCeWmyx2xmOTd5TkckTqOPiQxMIOPfs1TgzsUqzCkYPMGPV344FRqVjVwVS+iKk/61VuYPBX+cQqXIVnTPJCVo0mcFXzUj+1kOCxkZ0/x8FlCS5LcLP+Clf5dG269cFfrV3Ot32PhvTEffz5JKzNUPW1CzLThKOmjqH62vFm8TTQjM8NVO2cs2Tn2vFc+dm+/vj6zq+pvNQkNIcLTn3oORa2xtCRxJHZH/YoVuHX+sCrzGNqLPQcDxtf1iu8+hSPX2uFjxf+zsYfsmokkU+TUzny51jY2Re1Or+OU+lLeTmudqWrT+ela9OtD/5q7XK+7b946bX4rLV4fBPOhKXZIokv2eDgpWibAAAO+klEQVSQVRMmNpJVHhdZyJxb+cDkmNqhV6/IVVy2R7FuXGp045HXyTxmxuW42pUevurFPLv6WqvC5rjWqRpJ4GmEIz1i+iJHm5r6Rv6MyzbjZD92jqtd6fiy1LUJvVqfjLH9Wc3F+zW3X27C8skmSEOzRUKkJRvcSOZPwWGP8FWMy4xY2OhZ5pjaqr+SV9WZ9eVxO7uqp9gcV7vS1ad1Qq9i+JDkLNngQlZNJvJ5RZNDD6l21wArzAhLbCSZQ4fJcbUrXX1aU9emW5+MsT13qXudPmudbv07YciYG6j6NRY6NjKw6tdc9HfLuNgYk0sOW6Xiwq/2bF7GzdRQDPPJdfDPyKqe5uW42pUePvXnWhpTbOcnX+P4kFUTjqZE/azP2BUmfCM/8U7qfCpMjqtd6fhCaj3WBVmtT8TC38XItfyspuP9+vt+Pebb0TRSba5BBvXvFdubZHqRhZ7rd/GMrexRLngk4y7laJyckOpH13ing0WCw1bJOIrpdM0LXXEawx9S/ZqzFKsaSTQl6mWdhkVcpWKzn7yMUf+SXtVUH7qOMaOTF1LXNPRqffB3sVzD9t8vd6/HZ6zHI5qwyfgZZLz7PuVmstQM7xzXvc7rkmOjuGKt+5x/IgfchNPvhD9xEz3nz7h8cjO5c5NdejblbF4XYuHvYmAsP4P73qd+n9yE3YT/8aPBdx4Y/RFl1t85j3eNpU1lqVHtHc/rq/beYy3VY711PfBZ9he21+Z+a+Mm7CZ8ahP2pXK/S8V76j01B+Y54CbsJuwmbA6YA+aAOXASB9yET1p4v1Ocf6fotfJamQPmwF054CbsJux3wOaAOWAOmAMnccBN+KSFv+u7Oj+XP7GYA+aAOTDPATdhN2G/AzYHzAFzwBw4iQNuwictvN8pzr9T9Fp5rcwBc+CuHHATdhP2O2BzwBwwB8yBkzjgJnzSwt/1XZ2fy59YzAFzwByY54CbsJuw3wGbA+aAOWAOnMQBN+GTFt7vFOffKXqtvFbmgDlwVw64CbsJ+x2wOWAOmAPmwEkccBM+aeHv+q7Oz+VPLOaAOWAOzHPATdhN2O+AzQFzwBwwB07igJvwSQvvd4rz7xS9Vl4rc8AcuCsH3ITdhP0O2BwwB8wBc+AkDrgJTyz81x9f3/G66zuxs5+L9UXuMZ9Xa72a3z3DXv+J/dcfv77j1Y3zKf691uNTntfz9Cf6zAE34Zs34aOaSSbSHvaec3211qv51Xrs2XBeacKv5FbP9apvz3V5dS7Od5N8NwfchN2EL/Npas/Gt2etvQ7lns3mlUb6Su5ea6F19lwXrWvdDfUTOPD173/9+89LWPUtk//Pf//zZ60uX8dQvcPv4edCRlITW+VMDEwltRa64vAhI4beSc2v9Jw3qkk+ORmb44obxcB1ktyRJFcx+FSO4sTAdzb+LMlDalx96CEDoza65o4aDU0RSd7IJqaSvN/z+f3jauKVT2MaVz0wYWef+rsY9StJTWS3PuHvYuRautl+Mgd+PglrM1R97YPNNOGoqWOovna8GXx1IZKXY9jIDoe/kqPcHCNf/Z0ONkvF51jYXRx/yIwjRr1s49c8xXS65lW65mltxSpGdcXk3BEu52FXOfhC6hj4R7ldI6FBkasyx9RW/fdc/vodcY5pzYzVGHkhM44Y+Gzj1zzFZF3xoXfr4ybsBpu5cjf7MU04X5SxkdmHjWSzs42/khmrtuqaq/5OV7zq4JEaC32tX3PIRVIbu5Kan3XyO0k94tnO9ap4zh1hwFayyqt8eU6VHb6uydCckDqX7FNb9d9j/rMJZwy11/q1PrnIXBO/Ss1HJw/ZrQ9xSzfju3Lg9k2YjeMCRYZfdbU7P7VGcpSbY9RRf6eD7SR5SHDZXvJHvMupYmCRGaN+xu5kxmZ7TW1yVXbjVn7yNFb58pwqO3xLTUabVui/6/zVWLMNPvw5ln0z2K5GroWtsquv/qxrfuhL65Pxtt2U78KBR/xOWDdLL1LVA4ONJC/b+CuZsWqrrrnq73TFj3TND1y2ye38mhMY8Mich43U/KxTo5Nao8tVjOq5psZUz7jOrnIqXzXPCjfbZHKzCps5zsbAIzXv93z/3tw7HH7N0fkQ7+qrP+vkIrv1CX8XI9fSDfmTOXD7b0dzIapkw/BVNjGV4EZS8eiKx4eM2IyuNVQnV6XGtX5giIHHzpK4SjDqy3pg8GWd/CzBqwSjPnRiIfEhiS3Z4LIkTyUYfNgqianUeNdIaE4qNU/96BFHV0me+tCJIfGHzD7sLDUHHQx2JQODH508ZLc+bsJusHDkrvL2TfjdG8cl/O5xPd51LquOA12jefrejdbFTfg6vH46T496fjfhiX8nvGbxuwt4TQ1jP/vi6TgwajZP3vNuXdyAP/scPJnTa57dTXhlE+aCrWQsPP41mzDCUq+So7wrxaq543v3PBm3knvNhdpVva7hVNgn+LwebrRP4PnoGd2EVzbh0WI65gvFHDAHzAFzYA0H3ITdhP/8Ys4a4hjri8YcMAfMgdc54CbsJnyLJuwfa75+GdzlQjUXzIVP4rKb8KAJf3399U96PmlTZ+d6xPNtrbk1L561unSjXn7ldSHe+fOcluxcB5txVOaY2qprjo6f/aMY9ULmvBxTGzxScxWnfnTi2Cq7GP6QgVdbda2FrvHQK05kjG036ytwwE3YTbi97LYQdHR5juptzYuaowu3q4sfydyyjT+kxlRXzEivcsKnftWpNevr8JqveuDVVj3XyrFs51rkI2fwilGdGshRDMyIE2As3YSvwIFH/MWsOLT60oVXP4c7+7A1b6SDR4INGz2k2ujkYCuuihGvYurL9XJM4zrHSs+51RzAaD4+HUt9qnd5mhuYpcs246mLH5n92CrBIjU2o1d54VO/6tSc9XV4zVc98GqrnmvlWLZzLfKRM3jFqE4N5CgGJmTHjfB3Mc237ib9Dg78fBLW/8lI9bUTuOT/opQanz5TdZjVp7rmjfTI6fKyX+2ctyaW50PuqGbkgMv5I3spZylO7YzLdocLv2KXLlPFUjPXyJiws09zqpjW7vQqD1+WWoNY9oVfX8QzXm3VA6+26rlWjmU71yIf2eHDzwvsTC1ykJqL3nHDTdjNFY5cQT6iCXcHFX+WbEz40WflKCfH1FY9j7UUi3h+RY2ct2TncStbx+nilT98mjs7l5yDzRjdRUs8j6PzGGHAgcGu6ilmpFe5+LLUOsSWfMQDry/8IdWf62YbPFJztSZ6lT+KZbzaqlMDOYqBCbnEDcVad2M+iwO3b8K6sHF49QCrrjj0pTg4laOcHFNbda0X+l6xXCfbedwlO/JzjWxTI/uX7C4PP3Lpos3jRF74qhc1VWo+OlJxM3qVp77Q1abmrK/C55paaxTLtTSPWJYjTBXLPrVVXzOOYpe4oVjrbsJnceARvxPWxdXDHbraigt9FMtY7FFNrZdxGqMWcinWxbN/yWa8NXK2puJCVzvGyzZzqLDEQi5dtFXdWV+el+aprvMZ6VWO+kJXm1qzvg6v+aoHXm3Vc60qBgY5wlSx7FNbdeojRzEwITtuhL+Lab51N+Z3cOD2346OA6uvvKgaQweDjcS/JMEjFY8PSSxs9CxHscBSSyV+rZXrKD7HNE/1pZxRfK+YznXpMlUszzHyLc2RGiGrOhpHzzU1L+tqaz46crZm4MGiUwNbxwSLBKsYfFlWGOqoJE99OTfHND6KUTtkxw03YTdX5cnZ+u2b8NkL7PGPP/DdZeu1P37tr7rGI064CT+XF1fkq5vw4N8JX3HDPKd/XiCjC9fr9c/1esKadJxwA34mH67MeTfhlU24+lEYvitv9OzceJZKztY4A9dduu+YS7VW+N4xvsf4e2M5kwvei7/vhddjeT3chFc2YZNqmVReI6+ROWAOmANzHHATdhNuvxDmQzR3iLxOXidzwBzYygE34YUm/PX16zteWxdY8/aodZUftX398es7Xvp81u99Eb3Kvch/tYY5dm+OPXF/3YQ3NuEtDXVLjpLynRfYUoP9hCYcv5fV9ZvVt+bN1t8Lt3WeW/Ni3ls5uDVvr7VyHTfvq3LATXihCXcbt6WhbsnR8d95kS01YZ3XkfrXH9saacxpa7PZmrdlHT7t+bZycGveljV1jhvuJ3HgEX8xi+aHjA0Kvdoo/GCRYLGzJE5tjRNTHzqxJdldYjRLPpli/8wj/bg4x7oc9aMzP+yQ+BhLY6qDU1/OB1PJaFRds4qGqa+fuSQfca2NLyR+9amucfSQmotd5WlOpV/l+WafoeNi9Wz4tuSQa+mmemcO/HwS1v85SfW1D37N/0Wp/p1uNMHq+bK/a5Zr/TFWzsl2YGL9qz3oLjEaG8+izU31n/GlcY7yMpbaKqva+LS2+jR/ZgzFV40qN0HF/9SXBptjauc62Qab/WqrDn6NvOLzxfyr5+q42HE36nQ5a9bIWDfjO3Lgo5twNP38yptEo0MSD3tJj3jO0xytseSvalW1u4usu8RocoyvMsfUVv1nbtKgK1vrVnGtV+nhq17UpQkh8avMsWgQvBSHXjUQjZGbcdnWHPSQiutqgWfuSPwqc2yx5uBNhubqPPO8/za+rKfmKyb0josVdwPb4XNd226yT+TAxzfh2U2j4VUyaqhfa+JXn+Jn/VVOVzvXDLu7yLTh5bwcU1v1n7m9oQnn+a2xc4PKuTQN9efmQyz7l+zZPMXlmsQ6ecXn6+bacbHDh39LzqieY27Yd+HAR/9OePbH37pZ2vg6vcO/4o9cHa+ytX7Wu0ssN1PN01jo2e6w4Ves4tBzXO1KD5/6qTMjlxoUNXLjy3aFC0zGZXs2D1zIroZi0K/0fDPz7rjI81RyS05Vxz4337tx4KO/HT3ThGl8KtlEfGGrrjb+kOQhu5j6NQ9/zsceye4SW2psND8kY+S8yiZHY+pDj5oZU40DXiW4TkaDamPpx6cZFw1FXxpXf248W2KjHB0361d/vrw2Mf+Oi/nZ1N6So/nW3XzvyoHbN+E7bZwvMl9EZ/N5Kwe35p39vB7fZ+5oDrgJb/x3wkdvTFXfF5kvhIoX7/Rt5eDWvHc+m8fy+TqDA27CH9SEgyC+zHxRnHFR7MG94K75a/6exd+rjvv/AfgMbzEFGTuVAAAAAElFTkSuQmCC;imageBackground=#EBFFE6;" vertex="1" parent="1">
          <mxGeometry x="270" y="670" width="481" height="526" as="geometry" />
        </mxCell>
        <mxCell id="9vh1Hj67I27Qi9RlaAKU-11" value="" style="endArrow=classic;html=1;shadow=1;strokeColor=#CC0000;" edge="1" parent="1" source="9vh1Hj67I27Qi9RlaAKU-1" target="9vh1Hj67I27Qi9RlaAKU-3">
          <mxGeometry width="50" height="50" relative="1" as="geometry">
            <mxPoint x="290" y="170" as="sourcePoint" />
            <mxPoint x="340" y="120" as="targetPoint" />
          </mxGeometry>
        </mxCell>
      </root>
    </mxGraphModel>
  </diagram>
</mxfile>
